<svg width="393" height="445" viewBox="0 0 393 445" fill="none" xmlns="http://www.w3.org/2000/svg">
<path d="M177.614 325.848C158.637 324.767 141.444 319.364 126.036 309.641C110.639 299.725 98.6919 286.64 90.1944 270.387C81.8995 253.953 78.3198 235.768 79.4553 215.832C80.5907 195.896 86.2066 178.331 96.303 163.137C106.602 147.761 119.958 136.118 136.37 128.207C152.783 120.295 170.477 116.88 189.455 117.961C208.624 119.052 225.816 124.455 241.032 134.168C256.44 143.892 268.292 156.971 276.587 173.405C284.893 189.648 288.478 207.737 287.342 227.672C286.207 247.608 280.586 265.269 270.478 280.655C260.382 295.85 247.122 307.498 230.699 315.602C214.286 323.513 196.591 326.929 177.614 325.848ZM180.595 273.516C194.971 274.335 206.549 270.283 215.326 261.36C224.296 252.447 229.228 240.132 230.123 224.413C231.04 208.311 227.544 195.42 219.633 185.738C211.926 175.876 200.883 170.536 186.507 169.717C171.938 168.887 160.265 172.934 151.488 181.857C142.721 190.589 137.879 203.005 136.962 219.107C136.056 235.018 139.457 247.904 147.164 257.766C154.883 267.437 166.026 272.687 180.595 273.516Z" fill="url(#paint0_linear)"/>
<path d="M286.5 221.5C286.5 279.512 239.916 326.5 182.5 326.5C125.084 326.5 78.5 279.512 78.5 221.5C78.5 163.488 125.084 116.5 182.5 116.5C239.916 116.5 286.5 163.488 286.5 221.5Z" stroke="#49A9AE" stroke-width="5"/>
<path d="M232 220.5C232 249.162 210.522 272 184.5 272C158.478 272 137 249.162 137 220.5C137 191.838 158.478 169 184.5 169C210.522 169 232 191.838 232 220.5Z" stroke="#50BCC2" stroke-width="6"/>
<path d="M68.6206 262.905L92.7345 328.313C90.5963 328.199 88.4656 328.471 86.4489 329.114C83.017 330.256 80.0361 332.375 77.8831 335.204C75.73 338.033 74.5014 341.445 74.3527 345.008C74.2039 348.571 75.1416 352.126 77.0472 355.223C78.9529 358.32 81.7409 360.82 85.0588 362.408C88.3768 363.995 92.0758 364.597 95.6881 364.14C99.3004 363.682 102.664 362.185 105.353 359.837C108.043 357.489 109.938 354.396 110.798 350.948C111.658 347.501 111.446 343.854 110.188 340.469L88.7048 281.914L142.822 246.73L164.351 304.793C160.437 304.737 156.641 305.899 153.51 308.11C150.38 310.322 148.079 313.469 146.939 317.095C145.8 320.721 145.881 324.639 147.172 328.28C148.463 331.922 150.896 335.099 154.12 337.351C157.343 339.603 161.189 340.814 165.101 340.808C169.014 340.802 172.789 339.579 175.881 337.317C178.972 335.055 181.22 331.871 182.299 328.226C183.378 324.581 183.231 320.663 181.881 317.041V317.041L145.876 220.063L68.6206 262.905Z" fill="url(#paint1_radial)"/>
<defs>
<linearGradient id="paint0_linear" x1="8.13388" y1="75.1785" x2="441.557" y2="351.474" gradientUnits="userSpaceOnUse">
<stop stop-color="#0BBDF0" stop-opacity="0.85"/>
<stop offset="0.471875" stop-color="#0B75B4"/>
<stop offset="0.997917" stop-color="#B0EBFE"/>
</linearGradient>
<radialGradient id="paint1_radial" cx="0" cy="0" r="1" gradientUnits="userSpaceOnUse" gradientTransform="translate(169 170.5) rotate(109.534) scale(288.611 243.713)">
<stop stop-color="#EEF8F9"/>
<stop offset="0.195833" stop-color="#68BCC8"/>
<stop offset="0.341667" stop-color="#0BD8EF"/>
<stop offset="0.4875" stop-color="#0983EF"/>
<stop offset="0.721875" stop-color="#322D2D"/>
<stop offset="0.940625" stop-color="#E5E5E5"/>
</radialGradient>
</defs>
</svg>
