<svg width="1163" height="1091" viewBox="0 0 1163 1091" fill="none" xmlns="http://www.w3.org/2000/svg">
<path d="M243.928 919.124L74.432 827.349C68.524 824.141 68.524 818.948 74.432 815.741L380.766 649.8C384.081 648.219 387.747 647.395 391.466 647.395C395.184 647.395 398.851 648.219 402.165 649.8L571.638 741.596C577.569 744.804 577.569 749.997 571.638 753.205L265.35 919.037C262.038 920.631 258.372 921.47 254.65 921.485C250.928 921.501 247.254 920.692 243.928 919.124V919.124Z" fill="#E0E0E0"/>
<path d="M846.036 925.648C935.509 925.648 1008.04 886.366 1008.04 837.91C1008.04 789.453 935.509 750.172 846.036 750.172C756.563 750.172 684.03 789.453 684.03 837.91C684.03 886.366 756.563 925.648 846.036 925.648Z" fill="#E0E0E0"/>
<path d="M233.112 751.175C233.856 725.515 226.134 682.486 199.292 639.544C170.449 593.504 132.396 562.781 100.39 572.142C70.6173 580.87 77.1301 618.793 121.952 660.12C153.376 689.097 185.196 725.886 199.734 767.911L224.947 822.047L233.112 751.175Z" fill="url(#paint0_linear)"/>
<path d="M233.112 751.175C233.856 725.515 226.134 682.486 199.292 639.544C170.449 593.504 132.396 562.781 100.39 572.142C70.6173 580.87 77.1301 618.793 121.952 660.12C153.376 689.097 185.196 725.886 199.734 767.911L224.947 822.047L233.112 751.175Z" fill="url(#paint1_linear)"/>
<g opacity="0.1">
<path opacity="0.1" d="M233.112 751.175C233.856 725.515 226.134 682.486 199.292 639.544C170.449 593.504 132.396 562.781 100.39 572.142C70.6173 580.87 77.1301 618.793 121.952 660.12C153.376 689.097 185.196 725.886 199.734 767.911L224.947 822.047L233.112 751.175Z" fill="black"/>
</g>
<g opacity="0.2">
<path opacity="0.2" d="M233.112 751.175C233.856 725.515 226.134 682.486 199.292 639.544C170.449 593.504 132.396 562.781 100.39 572.142C70.6173 580.87 77.1301 618.793 121.952 660.12C153.376 689.097 185.196 725.886 199.734 767.911L224.947 822.047L233.112 751.175Z" fill="black"/>
</g>
<path d="M228.134 770.246C227.738 770.207 227.364 770.054 227.064 769.808C226.764 769.562 226.553 769.235 226.459 768.871C207.27 695.6 158.633 618.488 113.323 589.511C112.897 589.242 112.603 588.825 112.505 588.353C112.406 587.88 112.512 587.39 112.799 586.991C113.086 586.591 113.53 586.315 114.034 586.223C114.538 586.131 115.06 586.231 115.486 586.5C161.517 615.979 210.829 693.985 230.274 768.064C230.387 768.529 230.302 769.018 230.037 769.425C229.772 769.833 229.348 770.127 228.855 770.246C228.616 770.281 228.373 770.281 228.134 770.246Z" fill="white"/>
<path d="M225.855 874.393C225.855 874.393 203.362 888.51 168.449 889.187C133.536 889.863 112.462 872.407 112.462 872.407C112.462 872.407 138.583 844.259 159.215 838.346C137.331 839.794 116.485 847.656 99.6225 860.821C99.6225 860.821 70.8732 849.911 67.0585 819.036C67.0585 819.036 86.8993 803.762 129.861 799.398C121.582 796.892 113.146 794.874 104.6 793.353C89.8431 791.549 74.9396 791.031 60.0805 791.804C48.1016 771.512 56.9404 743.604 50.8928 721.086C76.4788 711.245 105.647 713.514 132.791 718.904C136.517 719.393 140.086 720.628 143.258 722.526C146.959 725.515 149.624 729.474 150.911 733.894C153.493 740.688 155.355 747.704 156.47 754.841C162.84 746.681 167.851 737.661 171.333 728.09C181.405 729.443 202.246 733.348 214.504 744.237C215.667 759.838 213.201 771.402 208.665 787.331C225.227 775.963 225.459 769.177 231.414 758.507C238.08 763.908 243.515 770.518 247.392 777.938C251.269 785.358 253.509 793.437 253.976 801.689C254.127 806.523 253.964 811.361 253.487 816.177C253.397 821.876 252.774 827.556 251.627 833.153C250.204 838.321 248.313 843.365 245.974 848.231C241.395 858.23 234.526 867.162 225.855 874.393V874.393Z" fill="url(#paint2_linear)"/>
<path opacity="0.4" d="M225.855 874.393C225.855 874.393 203.362 888.51 168.449 889.187C133.536 889.863 112.462 872.407 112.462 872.407C112.462 872.407 138.583 844.259 159.215 838.346C137.331 839.794 116.485 847.656 99.6225 860.821C99.6225 860.821 70.8732 849.911 67.0585 819.036C67.0585 819.036 86.8993 803.762 129.861 799.398C121.582 796.892 113.146 794.874 104.6 793.353C89.8431 791.549 74.9396 791.031 60.0805 791.804C48.1016 771.512 56.9404 743.604 50.8928 721.086C76.4788 711.245 105.647 713.514 132.791 718.904C136.517 719.393 140.086 720.628 143.258 722.526C146.959 725.515 149.624 729.474 150.911 733.894C153.493 740.688 155.355 747.704 156.47 754.841C162.84 746.681 167.851 737.661 171.333 728.09C181.405 729.443 202.246 733.348 214.504 744.237C215.667 759.838 213.201 771.402 208.665 787.331C225.227 775.963 225.459 769.177 231.414 758.507C238.08 763.908 243.515 770.518 247.392 777.938C251.269 785.358 253.509 793.437 253.976 801.689C254.127 806.523 253.964 811.361 253.487 816.177C253.397 821.876 252.774 827.556 251.627 833.153C250.204 838.321 248.313 843.365 245.974 848.231C241.395 858.23 234.526 867.162 225.855 874.393V874.393Z" fill="black"/>
<path d="M225.622 876.204C225.266 876.15 224.933 876.005 224.658 875.786C224.383 875.567 224.178 875.281 224.064 874.96C204.362 817.683 111.066 742.054 75.3624 730.643C75.1202 730.566 74.8965 730.446 74.7043 730.288C74.5121 730.13 74.3552 729.938 74.2427 729.723C74.1302 729.508 74.0644 729.274 74.0489 729.035C74.0335 728.796 74.0688 728.556 74.1529 728.33C74.3125 727.897 74.6425 727.539 75.0751 727.328C75.5077 727.117 76.01 727.069 76.4789 727.195C112.788 738.803 207.642 815.653 227.669 873.847C227.795 874.293 227.735 874.766 227.501 875.172C227.268 875.577 226.879 875.884 226.413 876.029C226.163 876.134 225.895 876.194 225.622 876.204V876.204Z" fill="white"/>
<path d="M518.372 91.643L237.787 243.663C233.346 246.064 229.629 249.484 226.985 253.602C224.34 257.721 222.855 262.402 222.668 267.207V879.149C222.668 888.793 228.995 900.052 236.833 904.285C244.672 908.518 258.209 908.06 267.071 903.238L546.61 751.829C551.295 748.953 555.194 745.086 557.994 740.538C560.793 735.99 562.415 730.889 562.729 725.645V115.754C562.729 106.11 556.379 94.8724 548.564 90.6175C540.748 86.3626 527.258 86.8644 518.372 91.643Z" fill="#56CDD3"/>
<path opacity="0.15" d="M263.257 904.963C254.65 908.105 243.602 907.952 236.833 904.286C229.018 900.053 222.668 888.794 222.668 879.15V267.208C222.836 262.634 224.236 258.175 226.738 254.247L252.743 268.081C248.236 273.02 245.595 279.218 245.23 285.711V891.412C245.23 903.021 253.046 908.519 263.257 904.963Z" fill="url(#paint3_linear)"/>
<path d="M259.442 262.604C255.311 265.144 251.873 268.557 249.405 272.571C246.936 276.584 245.507 281.085 245.23 285.711V891.434C245.23 904.526 255.069 909.785 267.095 903.261L546.61 751.83C551.295 748.954 555.194 745.087 557.994 740.539C560.793 735.991 562.415 730.89 562.729 725.646V115.755C562.729 106.154 555.472 102.227 546.61 107.027L259.442 262.604Z" fill="url(#paint4_linear)"/>
<path d="M274.026 299.916C269.564 302.643 265.851 306.319 263.188 310.645C260.525 314.97 258.986 319.824 258.698 324.813V846.005C258.698 855.169 265.536 858.901 274.003 854.318L537.027 711.834C541.476 709.101 545.179 705.427 547.837 701.106C550.496 696.786 552.035 691.94 552.332 686.959V165.832C552.332 156.711 545.354 152.98 537.027 157.54L274.026 299.916Z" fill="#37474F"/>
<path d="M534.724 710.372C539.173 707.639 542.876 703.965 545.535 699.644C548.193 695.324 549.733 690.478 550.029 685.497V164.283C550.132 162.795 549.917 161.304 549.398 159.895C548.879 158.486 548.065 157.189 547.006 156.078C545.346 155.571 543.583 155.431 541.856 155.669C540.129 155.908 538.484 156.518 537.05 157.453L274.026 299.916C269.565 302.643 265.851 306.319 263.188 310.645C260.525 314.97 258.986 319.824 258.698 324.813V846.005C258.588 847.495 258.797 848.99 259.312 850.403C259.827 851.815 260.639 853.117 261.698 854.231C263.362 854.737 265.128 854.877 266.859 854.638C268.59 854.4 270.238 853.79 271.677 852.857L534.724 710.372Z" fill="#455A64"/>
<path d="M383.627 215.145L430.31 189.834C433.078 188.328 435.334 189.398 435.334 192.212C435.212 193.8 434.694 195.338 433.821 196.702C432.948 198.067 431.745 199.22 430.31 200.068L383.79 225.313C380.999 226.819 378.743 225.75 378.743 222.913C378.861 221.352 379.364 219.838 380.212 218.491C381.059 217.143 382.228 215.998 383.627 215.145Z" fill="#455A64"/>
<path d="M463.618 171.745C466.223 170.349 468.27 171.483 468.27 174.32C468.19 175.85 467.727 177.34 466.919 178.67C466.111 180.001 464.98 181.134 463.618 181.979C460.99 183.397 458.966 182.262 458.966 179.426C459.041 177.892 459.501 176.397 460.31 175.062C461.118 173.727 462.252 172.59 463.618 171.745V171.745Z" fill="#455A64"/>
<path d="M482.529 161.468C485.134 160.05 487.181 161.184 487.181 164.021C487.097 165.553 486.633 167.045 485.825 168.378C485.017 169.712 483.888 170.85 482.529 171.702C479.9 173.098 477.877 171.963 477.877 169.127C477.955 167.597 478.417 166.106 479.225 164.775C480.034 163.444 481.165 162.311 482.529 161.468V161.468Z" fill="#455A64"/>
<path d="M331.339 243.402C333.944 241.984 335.991 243.14 335.991 245.955C335.911 247.488 335.448 248.981 334.64 250.315C333.832 251.649 332.701 252.787 331.339 253.636C328.734 255.054 326.687 253.897 326.687 251.083C326.767 249.55 327.229 248.057 328.037 246.723C328.845 245.389 329.976 244.251 331.339 243.402Z" fill="#455A64"/>
<path d="M350.249 233.168C352.854 231.772 354.901 232.907 354.901 235.743C354.821 237.273 354.358 238.763 353.55 240.094C352.742 241.424 351.611 242.558 350.249 243.402C347.644 244.82 345.597 243.686 345.597 240.849C345.681 239.317 346.145 237.825 346.953 236.492C347.76 235.158 348.889 234.02 350.249 233.168V233.168Z" fill="#455A64"/>
<path d="M240.067 358.764C240.011 357.182 239.561 355.633 238.754 354.242C237.946 352.852 236.802 351.658 235.415 350.756C234.95 350.445 234.405 350.257 233.836 350.211C233.267 350.164 232.696 350.263 232.181 350.495C231.577 350.844 229.251 352.066 228.623 352.415C228.115 352.778 227.716 353.258 227.463 353.809C227.211 354.359 227.113 354.961 227.18 355.557V426.516C227.232 428.099 227.68 429.649 228.488 431.04C229.297 432.431 230.442 433.624 231.832 434.523C232.28 434.822 232.8 435.008 233.346 435.065C233.891 435.123 234.443 435.049 234.949 434.851C235.601 434.523 237.973 433.236 238.601 432.887C239.12 432.527 239.529 432.045 239.786 431.489C240.043 430.934 240.14 430.325 240.067 429.723V358.764Z" fill="#56CDD3"/>
<path opacity="0.4" d="M240.067 358.764C240.011 357.182 239.561 355.633 238.754 354.242C237.946 352.852 236.802 351.658 235.415 350.756C234.95 350.445 234.405 350.257 233.836 350.211C233.267 350.164 232.696 350.263 232.181 350.495C231.577 350.844 229.251 352.066 228.623 352.415C228.115 352.778 227.716 353.258 227.463 353.809C227.211 354.359 227.113 354.961 227.18 355.557V426.516C227.232 428.099 227.68 429.649 228.488 431.04C229.297 432.431 230.442 433.624 231.832 434.523C232.28 434.822 232.8 435.008 233.346 435.065C233.891 435.123 234.443 435.049 234.949 434.851C235.601 434.523 237.973 433.236 238.601 432.887C239.12 432.527 239.529 432.045 239.786 431.489C240.043 430.934 240.14 430.325 240.067 429.723V358.764Z" fill="black"/>
<path d="M236.554 360.663V431.643C236.554 434.654 234.437 436.007 231.902 434.524C230.512 433.624 229.366 432.431 228.558 431.04C227.75 429.649 227.302 428.099 227.25 426.516V355.666C227.25 352.655 229.367 351.302 231.902 352.764C233.275 353.655 234.409 354.831 235.216 356.202C236.023 357.572 236.481 359.099 236.554 360.663V360.663Z" fill="#56CDD3"/>
<path d="M240.066 453.856C240.013 452.27 239.564 450.718 238.756 449.323C237.949 447.929 236.804 446.731 235.414 445.826C234.951 445.512 234.404 445.323 233.834 445.281C233.264 445.238 232.692 445.344 232.181 445.586L228.623 447.485C228.115 447.848 227.716 448.328 227.463 448.879C227.211 449.429 227.113 450.031 227.18 450.627V484.077C227.232 485.663 227.68 487.216 228.488 488.611C229.296 490.005 230.442 491.203 231.832 492.107C232.279 492.407 232.801 492.593 233.348 492.647C233.894 492.7 234.446 492.619 234.949 492.412C235.601 492.085 237.973 490.797 238.601 490.448C239.116 490.09 239.523 489.611 239.78 489.06C240.037 488.509 240.136 487.904 240.066 487.306V453.856Z" fill="#56CDD3"/>
<path opacity="0.4" d="M240.066 453.856C240.013 452.27 239.564 450.718 238.756 449.323C237.949 447.929 236.804 446.731 235.414 445.826C234.951 445.512 234.404 445.323 233.834 445.281C233.264 445.238 232.692 445.344 232.181 445.586L228.623 447.485C228.115 447.848 227.716 448.328 227.463 448.879C227.211 449.429 227.113 450.031 227.18 450.627V484.077C227.232 485.663 227.68 487.216 228.488 488.611C229.296 490.005 230.442 491.203 231.832 492.107C232.279 492.407 232.801 492.593 233.348 492.647C233.894 492.7 234.446 492.619 234.949 492.412C235.601 492.085 237.973 490.797 238.601 490.448C239.116 490.09 239.523 489.611 239.78 489.06C240.037 488.509 240.136 487.904 240.066 487.306V453.856Z" fill="black"/>
<path d="M236.554 455.667V489.117C236.554 492.128 234.437 493.481 231.902 492.019C230.511 491.115 229.366 489.918 228.558 488.523C227.75 487.129 227.302 485.576 227.25 483.989V450.539C227.25 447.528 229.367 446.175 231.902 447.637C233.292 448.542 234.436 449.74 235.244 451.134C236.052 452.529 236.5 454.081 236.554 455.667V455.667Z" fill="#56CDD3"/>
<path opacity="0.4" d="M562.752 114.49C562.148 105.762 555.17 102.445 546.703 107.027L259.442 262.604C256.904 264.073 254.641 265.923 252.743 268.081L226.739 254.247C229.032 250.269 232.35 246.893 236.391 244.428L518.349 91.644C527.258 86.8218 540.818 86.3635 548.587 90.5966C556.356 94.8297 562.241 105.151 562.752 114.49Z" fill="url(#paint5_linear)"/>
<path d="M284.051 793.441C284.015 793.456 283.975 793.464 283.935 793.464C283.895 793.464 283.855 793.456 283.818 793.441C283.804 793.417 283.797 793.391 283.797 793.364C283.797 793.337 283.804 793.311 283.818 793.288V792.175L280.167 794.161C280.167 794.161 280.004 794.161 279.934 794.161C279.92 794.137 279.912 794.111 279.912 794.084C279.912 794.057 279.92 794.031 279.934 794.008V792.851C279.933 792.659 279.989 792.47 280.097 792.306L283.563 786.305L283.749 786.044C283.827 785.983 283.913 785.932 284.005 785.891L285.749 784.931C285.786 784.916 285.825 784.909 285.865 784.909C285.905 784.909 285.945 784.916 285.982 784.931C285.994 784.958 286.001 784.988 286.001 785.018C286.001 785.048 285.994 785.078 285.982 785.105V789.295L286.982 788.749C287.014 788.734 287.05 788.726 287.087 788.726C287.123 788.726 287.159 788.734 287.191 788.749C287.208 788.776 287.216 788.806 287.216 788.837C287.216 788.867 287.208 788.897 287.191 788.924V790.08C287.216 790.159 287.216 790.242 287.191 790.32C287.14 790.407 287.068 790.482 286.982 790.538L285.982 791.084V792.066C285.997 792.145 285.997 792.227 285.982 792.306C285.929 792.399 285.848 792.475 285.749 792.524L284.051 793.441ZM283.795 790.429V788.422L282.097 791.346L283.795 790.429Z" fill="white"/>
<path d="M290.936 785.52C290.966 785.605 290.966 785.697 290.936 785.782C290.885 785.863 290.813 785.93 290.727 785.978L289.192 786.807C289.159 786.821 289.123 786.828 289.087 786.828C289.051 786.828 289.015 786.821 288.982 786.807C288.968 786.784 288.96 786.758 288.96 786.731C288.96 786.704 288.968 786.678 288.982 786.655V785.215C288.952 785.13 288.952 785.038 288.982 784.953C289.034 784.872 289.106 784.805 289.192 784.756L290.727 783.927C290.76 783.913 290.795 783.906 290.831 783.906C290.867 783.906 290.903 783.913 290.936 783.927C290.952 783.954 290.961 783.984 290.961 784.015C290.961 784.045 290.952 784.075 290.936 784.102V785.52ZM290.936 789.339C290.966 789.424 290.966 789.515 290.936 789.6C290.885 789.681 290.813 789.749 290.727 789.797L289.192 790.626C289.159 790.64 289.123 790.647 289.087 790.647C289.051 790.647 289.015 790.64 288.982 790.626C288.968 790.603 288.96 790.576 288.96 790.549C288.96 790.523 288.968 790.496 288.982 790.473V789.033C288.952 788.948 288.952 788.856 288.982 788.771C289.034 788.69 289.106 788.623 289.192 788.575L290.727 787.746C290.76 787.732 290.795 787.725 290.831 787.725C290.867 787.725 290.903 787.732 290.936 787.746C290.952 787.772 290.961 787.802 290.961 787.833C290.961 787.864 290.952 787.894 290.936 787.92V789.339Z" fill="white"/>
<path d="M296.821 786.524C296.784 786.539 296.745 786.548 296.704 786.548C296.664 786.548 296.625 786.539 296.588 786.524C296.588 786.524 296.588 786.524 296.588 786.371V785.258L292.936 787.244C292.9 787.258 292.86 787.266 292.82 787.266C292.78 787.266 292.741 787.258 292.704 787.244C292.687 787.217 292.679 787.187 292.679 787.157C292.679 787.126 292.687 787.096 292.704 787.069V785.913C292.702 785.72 292.759 785.531 292.867 785.367L296.332 779.367L296.518 779.105C296.597 779.044 296.682 778.993 296.774 778.952L298.519 777.992C298.555 777.976 298.595 777.968 298.635 777.968C298.675 777.968 298.715 777.976 298.751 777.992C298.766 778.015 298.773 778.042 298.773 778.068C298.773 778.095 298.766 778.122 298.751 778.145V782.334L299.752 781.789C299.784 781.775 299.82 781.768 299.856 781.768C299.892 781.768 299.928 781.775 299.961 781.789C299.977 781.815 299.986 781.845 299.986 781.876C299.986 781.907 299.977 781.937 299.961 781.963V783.12C299.986 783.198 299.986 783.282 299.961 783.36C299.917 783.451 299.844 783.528 299.752 783.578L298.751 784.124V785.236C298.767 785.316 298.767 785.397 298.751 785.476C298.699 785.569 298.618 785.645 298.519 785.695L296.821 786.524ZM296.565 783.513V781.505L294.867 784.429L296.565 783.513Z" fill="white"/>
<path d="M302.194 783.338V783.185L304.706 776.334L301.24 778.21C301.24 778.21 301.077 778.21 301.008 778.21C300.938 778.21 301.008 778.21 301.008 778.058V776.901C300.984 776.815 300.984 776.725 301.008 776.639C301.067 776.557 301.147 776.49 301.24 776.443L306.799 773.432C306.83 773.412 306.867 773.401 306.904 773.401C306.941 773.401 306.978 773.412 307.009 773.432C307.009 773.432 307.009 773.432 307.009 773.584V774.61C306.98 774.835 306.917 775.056 306.823 775.265L304.31 782.138C304.273 782.229 304.227 782.317 304.171 782.4C304.126 782.485 304.052 782.554 303.962 782.596L302.333 783.469C302.304 783.482 302.273 783.489 302.24 783.489C302.208 783.489 302.176 783.482 302.147 783.469C302.147 783.469 302.194 783.338 302.194 783.338Z" fill="white"/>
<path d="M513.232 666.667C513.226 667.113 513.14 667.556 512.976 667.976C512.77 668.423 512.513 668.847 512.209 669.241C511.874 669.651 511.5 670.03 511.092 670.376C510.689 670.719 510.253 671.026 509.789 671.292C509.367 671.507 508.923 671.682 508.464 671.816C508.096 671.889 507.715 671.889 507.347 671.816C507.038 671.761 506.764 671.597 506.58 671.358C506.378 671.067 506.28 670.723 506.3 670.376C506.265 670.152 506.265 669.924 506.3 669.7C506.349 669.483 506.419 669.271 506.51 669.067L506.789 668.478L507.068 667.91L509.394 663.895C509.394 663.895 509.394 663.764 509.534 663.699C509.576 663.607 509.65 663.53 509.743 663.481L511.604 662.477C511.604 662.477 511.72 662.477 511.767 662.477C511.777 662.501 511.783 662.527 511.783 662.553C511.783 662.58 511.777 662.606 511.767 662.63C511.767 662.63 511.767 662.63 511.767 662.63L510.255 665.379C510.627 665.223 511.017 665.106 511.418 665.03C511.731 664.963 512.057 664.963 512.371 665.03C512.64 665.107 512.865 665.279 512.999 665.51C513.231 665.854 513.315 666.267 513.232 666.667V666.667ZM508.464 669.263C508.456 669.329 508.462 669.396 508.482 669.459C508.502 669.523 508.535 669.583 508.58 669.634C508.649 669.716 508.749 669.771 508.859 669.787C509.006 669.807 509.154 669.807 509.301 669.787L509.789 669.59L510.255 669.263C510.406 669.136 510.546 668.997 510.673 668.849C510.796 668.701 510.897 668.54 510.976 668.368C511.006 668.21 511.006 668.047 510.976 667.888C511.02 667.768 511.02 667.638 510.976 667.518C510.898 667.434 510.791 667.38 510.673 667.365C510.536 667.335 510.392 667.335 510.255 667.365C510.09 667.408 509.933 667.474 509.789 667.561L509.301 667.888L508.859 668.303C508.744 668.451 508.65 668.612 508.58 668.783C508.497 668.931 508.457 669.096 508.464 669.263V669.263Z" fill="white"/>
<path d="M516.954 663.175C516.984 663.26 516.984 663.352 516.954 663.437C516.894 663.519 516.814 663.587 516.721 663.633L515.209 664.462C515.172 664.477 515.133 664.484 515.093 664.484C515.053 664.484 515.013 664.477 514.977 664.462C514.964 664.439 514.958 664.413 514.958 664.386C514.958 664.36 514.964 664.334 514.977 664.31V662.87C514.985 662.774 515.019 662.681 515.076 662.601C515.133 662.521 515.211 662.456 515.302 662.411L516.814 661.582C516.851 661.568 516.89 661.56 516.93 661.56C516.97 661.56 517.01 661.568 517.047 661.582C517.063 661.609 517.072 661.639 517.072 661.669C517.072 661.7 517.063 661.73 517.047 661.757L516.954 663.175ZM516.954 666.994C516.984 667.079 516.984 667.17 516.954 667.255C516.894 667.338 516.814 667.405 516.721 667.452L515.209 668.281C515.172 668.295 515.133 668.303 515.093 668.303C515.053 668.303 515.013 668.295 514.977 668.281C514.964 668.257 514.958 668.231 514.958 668.205C514.958 668.178 514.964 668.152 514.977 668.128V666.688C514.985 666.592 515.019 666.5 515.076 666.419C515.133 666.339 515.211 666.274 515.302 666.23L516.814 665.401C516.851 665.386 516.89 665.379 516.93 665.379C516.97 665.379 517.01 665.386 517.047 665.401C517.063 665.427 517.072 665.457 517.072 665.488C517.072 665.519 517.063 665.549 517.047 665.575L516.954 666.994Z" fill="white"/>
<path d="M524.792 655.407C524.829 655.393 524.868 655.385 524.908 655.385C524.948 655.385 524.988 655.393 525.025 655.407C525.039 655.431 525.047 655.457 525.047 655.484C525.047 655.511 525.039 655.537 525.025 655.56V656.782C525.055 656.867 525.055 656.959 525.025 657.044C524.988 657.135 524.941 657.223 524.885 657.306L523.49 659.488C523.961 659.316 524.484 659.316 524.955 659.488C525.327 659.619 525.513 659.968 525.513 660.535C525.513 661.396 525.192 662.229 524.606 662.892C523.91 663.705 523.048 664.38 522.071 664.877C521.614 665.148 521.121 665.361 520.605 665.51C520.245 665.581 519.873 665.581 519.512 665.51C519.251 665.484 519.011 665.367 518.838 665.183C518.668 665.002 518.577 664.769 518.582 664.528C518.562 664.464 518.562 664.396 518.582 664.332C518.624 664.258 518.689 664.197 518.768 664.157L520.233 663.372C520.283 663.329 520.342 663.297 520.406 663.279C520.471 663.26 520.539 663.254 520.605 663.262H520.884H521.303C521.553 663.211 521.79 663.114 522.001 662.979C522.352 662.807 522.667 662.578 522.931 662.302C523.042 662.208 523.132 662.094 523.196 661.966C523.26 661.839 523.296 661.701 523.303 661.561C523.303 661.299 523.303 661.19 522.931 661.19C522.602 661.242 522.286 661.353 522.001 661.517L521.047 662.041C521.01 662.055 520.971 662.062 520.931 662.062C520.891 662.062 520.851 662.055 520.815 662.041C520.802 662.017 520.796 661.991 520.796 661.964C520.796 661.938 520.802 661.912 520.815 661.888V660.95C520.794 660.863 520.794 660.774 520.815 660.688C520.858 660.595 520.913 660.507 520.977 660.426L522.21 658.571L519.163 660.229C519.131 660.245 519.095 660.253 519.059 660.253C519.022 660.253 518.986 660.245 518.954 660.229C518.954 660.229 518.954 660.23 518.954 660.077V658.964C518.924 658.879 518.924 658.787 518.954 658.702L519.163 658.506L524.792 655.407Z" fill="white"/>
<path d="M530.607 652.134C531.074 651.868 531.585 651.677 532.119 651.567C532.459 651.464 532.825 651.464 533.166 651.567C533.444 651.689 533.661 651.909 533.77 652.178C533.915 652.496 533.994 652.836 534.003 653.182C534.003 653.487 534.003 653.793 534.003 654.142C534.003 654.491 534.003 654.818 534.003 655.124C533.978 655.546 533.9 655.963 533.77 656.368C533.633 656.821 533.429 657.254 533.166 657.655C532.871 658.094 532.52 658.497 532.119 658.855C531.668 659.267 531.159 659.619 530.607 659.902C530.153 660.182 529.649 660.382 529.118 660.492C528.778 660.595 528.412 660.595 528.072 660.492C527.793 660.369 527.576 660.15 527.467 659.881C527.314 659.565 527.227 659.224 527.211 658.877C527.211 658.593 527.211 658.288 527.211 657.939C527.211 657.589 527.211 657.262 527.211 656.935C527.242 656.512 527.328 656.094 527.467 655.691C527.605 655.238 527.808 654.805 528.072 654.404C528.366 653.964 528.718 653.561 529.118 653.204C529.566 652.791 530.066 652.432 530.607 652.134V652.134ZM531.863 656.324C531.863 655.669 531.863 655.058 531.863 654.491C531.878 654.339 531.878 654.185 531.863 654.033C531.828 653.913 531.755 653.807 531.654 653.727C531.533 653.691 531.403 653.691 531.282 653.727C531.076 653.757 530.879 653.823 530.7 653.924C530.489 654.039 530.293 654.178 530.119 654.338C529.974 654.484 529.849 654.645 529.746 654.818C529.663 654.98 529.593 655.148 529.537 655.32C529.514 655.501 529.514 655.684 529.537 655.866C529.491 656.476 529.491 657.088 529.537 657.699C529.509 657.85 529.509 658.005 529.537 658.157C529.567 658.272 529.642 658.374 529.746 658.44C529.866 658.487 529.999 658.487 530.119 658.44C530.329 658.415 530.529 658.34 530.7 658.222C530.914 658.12 531.111 657.988 531.282 657.83C531.435 657.686 531.568 657.525 531.677 657.349C531.767 657.183 531.837 657.007 531.886 656.826C531.899 656.658 531.891 656.49 531.863 656.324V656.324Z" fill="white"/>
<path d="M402.003 670.594V687.33C401.997 687.767 401.874 688.195 401.647 688.576C401.419 688.957 401.094 689.279 400.7 689.512L397.258 691.388C396.536 691.781 395.978 691.389 395.978 690.69V673.889C395.986 673.455 396.106 673.029 396.329 672.649C396.552 672.269 396.871 671.945 397.258 671.707L400.723 669.83C401.421 669.525 402.003 669.874 402.003 670.594Z" fill="white"/>
<path d="M414.028 664.07V680.784C414.015 681.217 413.892 681.641 413.669 682.02C413.447 682.399 413.131 682.724 412.749 682.966L409.283 684.843C408.585 685.213 408.004 684.843 408.004 684.144V667.321C408.028 666.905 408.156 666.501 408.378 666.141C408.601 665.78 408.911 665.475 409.283 665.248L412.749 663.371C413.47 662.979 414.028 663.328 414.028 664.07Z" fill="white"/>
<path d="M461.571 638.148V654.971C461.564 655.405 461.444 655.831 461.221 656.211C460.998 656.591 460.679 656.915 460.292 657.153L456.85 659.008C456.129 659.4 455.547 659.008 455.547 658.309V641.508C455.559 641.072 455.684 640.646 455.911 640.266C456.138 639.886 456.46 639.563 456.85 639.326L460.292 637.449C460.99 637.144 461.571 637.384 461.571 638.148Z" fill="white"/>
<path d="M464.363 636.795V653.269C464.363 654.491 465.06 654.731 465.921 653.793L482.203 636.337C483.064 635.398 482.692 634.657 481.366 634.657H466.805C466.494 634.642 466.183 634.686 465.89 634.786C465.597 634.887 465.329 635.041 465.101 635.241C464.873 635.44 464.691 635.681 464.564 635.948C464.437 636.215 464.369 636.503 464.363 636.795V636.795Z" fill="white"/>
<path d="M356.25 695.185V711.987C356.243 712.421 356.122 712.846 355.899 713.227C355.676 713.607 355.358 713.93 354.971 714.169L351.528 716.045C350.807 716.416 350.249 716.045 350.249 715.347V698.546C350.255 698.111 350.374 697.685 350.597 697.304C350.82 696.924 351.14 696.6 351.528 696.364L354.971 694.487C355.669 694.094 356.25 694.422 356.25 695.185Z" fill="white"/>
<path d="M347.946 716.394V699.244C347.946 697.935 347.179 697.673 346.248 698.655L328.943 717.005C328.013 717.987 328.385 718.794 329.804 718.794H345.388C345.725 718.797 346.059 718.737 346.371 718.618C346.682 718.498 346.966 718.321 347.204 718.098C347.442 717.874 347.631 717.609 347.758 717.316C347.885 717.024 347.95 716.71 347.946 716.394V716.394Z" fill="white"/>
<path d="M314.847 654.12C314.847 654.382 314.847 654.753 314.847 655.211V658.048C314.847 658.484 314.847 658.855 314.847 659.095C314.879 659.486 314.981 659.87 315.15 660.23C315.205 660.386 315.293 660.531 315.409 660.654C315.525 660.778 315.666 660.878 315.824 660.95C316.216 661.076 316.642 661.076 317.034 660.95C317.669 660.825 318.275 660.596 318.825 660.273C319.462 659.94 320.056 659.537 320.593 659.073C321.011 658.707 321.393 658.305 321.732 657.873C322.008 657.531 322.235 657.157 322.407 656.76C322.57 656.389 322.686 656.062 322.779 655.778C322.842 655.478 322.96 655.19 323.128 654.927C323.313 654.679 323.561 654.476 323.849 654.338L327.989 652.156C328.065 652.122 328.149 652.103 328.234 652.103C328.318 652.103 328.402 652.122 328.478 652.156C328.547 652.187 328.604 652.237 328.641 652.3C328.679 652.362 328.695 652.434 328.687 652.505C328.644 653.633 328.375 654.743 327.896 655.778C327.352 657.004 326.649 658.162 325.803 659.226C324.887 660.395 323.851 661.476 322.709 662.455C321.517 663.474 320.215 664.373 318.825 665.139C317.571 665.852 316.205 666.374 314.778 666.688C313.78 666.946 312.728 666.946 311.731 666.688C310.904 666.438 310.213 665.899 309.8 665.183C309.311 664.368 309.04 663.455 309.009 662.521C309.009 661.735 309.009 660.862 309.009 659.946C309.009 659.03 309.009 658.113 309.009 657.24C309.076 656.04 309.335 654.856 309.777 653.727C310.27 652.461 310.918 651.253 311.707 650.127C312.589 648.899 313.611 647.765 314.754 646.745C315.986 645.65 317.352 644.698 318.825 643.908C320.03 643.218 321.34 642.703 322.709 642.381C323.718 642.125 324.774 642.08 325.803 642.25C326.63 642.392 327.374 642.81 327.896 643.428C328.436 644.132 328.714 644.983 328.687 645.85C328.678 646.054 328.605 646.252 328.478 646.418C328.352 646.601 328.185 646.758 327.989 646.876L323.849 649.058C323.5 649.254 323.244 649.32 323.128 649.254C322.949 649.144 322.823 648.971 322.779 648.774C322.681 648.571 322.556 648.381 322.407 648.207C322.244 648 322.003 647.859 321.732 647.814C321.357 647.74 320.968 647.74 320.593 647.814C319.967 647.966 319.371 648.209 318.825 648.534C318.181 648.886 317.581 649.303 317.034 649.778C316.571 650.203 316.165 650.679 315.824 651.196C315.532 651.654 315.305 652.145 315.15 652.658C314.995 653.134 314.894 653.624 314.847 654.12V654.12Z" fill="white"/>
<path d="M332.781 644.257C332.866 643.052 333.124 641.863 333.548 640.723C334.032 639.452 334.68 638.243 335.479 637.122C336.359 635.906 337.373 634.78 338.503 633.762C339.755 632.657 341.146 631.697 342.643 630.904C343.911 630.177 345.293 629.64 346.737 629.311C347.736 629.065 348.785 629.065 349.784 629.311C350.598 629.581 351.282 630.115 351.714 630.816C352.185 631.652 352.447 632.577 352.482 633.522C352.482 634.351 352.482 635.224 352.482 636.162C352.482 637.1 352.482 637.973 352.482 638.802C352.397 640.008 352.139 641.197 351.714 642.337C351.231 643.607 350.583 644.816 349.784 645.937C348.914 647.167 347.891 648.295 346.737 649.298C345.496 650.398 344.122 651.357 342.643 652.156C341.362 652.895 339.965 653.44 338.503 653.771C337.514 654.028 336.468 654.028 335.479 653.771C334.665 653.5 333.98 652.967 333.548 652.265C333.078 651.429 332.816 650.504 332.781 649.56C332.781 648.774 332.781 647.901 332.781 646.985C332.781 646.068 332.734 645.13 332.781 644.257ZM346.737 641.879C346.737 641.508 346.737 641.115 346.737 640.657C346.737 640.199 346.737 639.762 346.737 639.304C346.737 638.846 346.737 638.431 346.737 638.017C346.737 637.602 346.737 637.231 346.737 636.904C346.707 636.496 346.596 636.096 346.411 635.726C346.248 635.422 345.976 635.183 345.644 635.049C345.25 634.935 344.828 634.935 344.434 635.049C343.834 635.18 343.261 635.401 342.736 635.704C342.11 636.025 341.532 636.421 341.015 636.882C340.558 637.305 340.153 637.773 339.805 638.279C339.489 638.744 339.232 639.242 339.038 639.762C338.874 640.267 338.764 640.786 338.712 641.312C338.686 641.704 338.686 642.098 338.712 642.49C338.712 642.926 338.712 643.363 338.712 643.821C338.712 644.279 338.712 644.716 338.712 645.152C338.686 645.53 338.686 645.909 338.712 646.287C338.707 646.661 338.805 647.03 338.997 647.359C339.188 647.688 339.467 647.965 339.805 648.163C340.457 648.447 341.41 648.163 342.736 647.552C343.838 646.992 344.778 646.189 345.475 645.212C346.172 644.235 346.605 643.114 346.737 641.944V641.879Z" fill="white"/>
<path d="M357.018 631.122C357.103 629.916 357.361 628.727 357.785 627.587C358.274 626.326 358.922 625.124 359.716 624.008C360.592 622.783 361.614 621.655 362.763 620.648C364.008 619.538 365.39 618.571 366.88 617.768C368.144 617.038 369.527 616.507 370.974 616.197C371.969 615.929 373.025 615.929 374.021 616.197C374.843 616.453 375.533 616.99 375.951 617.702C376.425 618.529 376.688 619.448 376.719 620.386C376.719 621.215 376.719 622.11 376.719 623.026C376.719 623.943 376.719 624.837 376.719 625.667C376.634 626.872 376.376 628.061 375.951 629.201C375.468 630.478 374.82 631.695 374.021 632.824C373.145 634.049 372.123 635.177 370.974 636.184C369.733 637.277 368.358 638.229 366.88 639.02C365.605 639.755 364.216 640.3 362.763 640.635C361.766 640.891 360.713 640.891 359.716 640.635C358.904 640.35 358.222 639.81 357.785 639.108C357.315 638.272 357.053 637.347 357.018 636.402C357.018 635.617 357.018 634.766 357.018 633.827C357.018 632.889 356.995 631.994 357.018 631.122ZM370.974 628.743C370.974 628.372 370.974 627.98 370.974 627.521C370.974 627.063 370.974 626.627 370.974 626.19C370.974 625.754 370.974 625.296 370.974 624.881C370.974 624.467 370.974 624.096 370.974 623.768C370.938 623.361 370.828 622.962 370.648 622.59C370.474 622.268 370.186 622.014 369.834 621.87C369.44 621.756 369.018 621.756 368.624 621.87C368.025 622.001 367.451 622.222 366.927 622.525C366.309 622.866 365.732 623.268 365.205 623.725C364.744 624.135 364.337 624.596 363.996 625.099C363.673 625.566 363.422 626.073 363.251 626.605C363.069 627.099 362.952 627.612 362.903 628.132C362.878 628.525 362.878 628.918 362.903 629.311C362.903 629.747 362.903 630.183 362.903 630.642C362.903 631.1 362.903 631.536 362.903 631.973C362.876 632.35 362.876 632.729 362.903 633.107C362.898 633.482 362.996 633.851 363.187 634.18C363.379 634.508 363.657 634.785 363.996 634.984C364.647 635.289 365.624 635.093 366.927 634.373C368.028 633.813 368.968 633.01 369.665 632.033C370.362 631.056 370.795 629.934 370.927 628.765L370.974 628.743Z" fill="white"/>
<path d="M397.444 617.506C397.539 617.466 397.642 617.446 397.746 617.446C397.85 617.446 397.953 617.466 398.048 617.506C398.133 617.545 398.204 617.609 398.249 617.687C398.295 617.765 398.314 617.854 398.304 617.942V621.084C398.286 621.334 398.198 621.575 398.048 621.783C397.896 622.013 397.689 622.207 397.444 622.35L382.836 630.249C382.743 630.295 382.639 630.319 382.534 630.319C382.429 630.319 382.325 630.295 382.232 630.249C382.069 630.249 381.999 630.052 381.999 629.834V610.698C382.007 610.45 382.087 610.208 382.232 610C382.39 609.774 382.596 609.581 382.836 609.432L386.977 607.25C387.071 607.206 387.174 607.183 387.279 607.183C387.384 607.183 387.488 607.206 387.581 607.25C387.667 607.283 387.738 607.342 387.785 607.417C387.831 607.492 387.849 607.579 387.837 607.665V622.939L397.444 617.506Z" fill="white"/>
<path d="M418.308 589.904C419.466 589.25 420.72 588.757 422.03 588.442C422.977 588.207 423.965 588.148 424.937 588.267C425.661 588.35 426.337 588.649 426.868 589.118C427.319 589.541 427.577 590.112 427.589 590.711C427.577 590.912 427.513 591.106 427.403 591.278C427.284 591.461 427.126 591.617 426.937 591.736L422.797 593.918C422.586 594.05 422.349 594.139 422.099 594.18C421.915 594.213 421.726 594.213 421.541 594.18L421.239 594.049C421.055 593.972 420.858 593.928 420.657 593.918C420.335 593.927 420.015 593.971 419.704 594.049C419.22 594.205 418.753 594.402 418.308 594.639C417.912 594.857 417.54 595.097 417.168 595.337C416.796 595.577 416.47 595.86 416.191 596.1C415.925 596.358 415.69 596.644 415.493 596.951C415.317 597.213 415.22 597.515 415.214 597.824C415.2 597.939 415.221 598.056 415.274 598.16C415.328 598.264 415.412 598.352 415.517 598.413C415.851 598.504 416.206 598.504 416.54 598.413C417.18 598.278 417.809 598.104 418.424 597.89L421.308 596.864C422.296 596.508 423.316 596.238 424.356 596.057C425.065 595.887 425.809 595.887 426.519 596.057C427.075 596.248 427.532 596.63 427.798 597.126C428.108 597.815 428.251 598.561 428.217 599.308C428.21 600.377 427.964 601.432 427.496 602.406C426.974 603.527 426.293 604.577 425.472 605.527C424.55 606.611 423.513 607.605 422.378 608.494C421.16 609.453 419.852 610.308 418.471 611.047C417.254 611.748 415.939 612.284 414.563 612.64C413.575 612.914 412.539 612.996 411.516 612.88C410.764 612.808 410.059 612.5 409.516 612.007C409.021 611.519 408.746 610.87 408.748 610.196C408.757 609.992 408.83 609.795 408.957 609.629C409.069 609.442 409.229 609.284 409.423 609.171L413.563 606.989C413.764 606.851 413.994 606.754 414.237 606.705C414.406 606.671 414.58 606.671 414.749 606.705L415.121 606.88C415.341 606.979 415.577 607.045 415.819 607.076C416.18 607.097 416.542 607.06 416.889 606.967C417.448 606.824 417.982 606.604 418.471 606.312C419.472 605.793 420.408 605.171 421.262 604.458C421.577 604.243 421.841 603.969 422.037 603.653C422.233 603.338 422.357 602.988 422.402 602.625C422.415 602.504 422.38 602.383 422.302 602.286C422.225 602.188 422.11 602.122 421.983 602.101C421.567 602.07 421.148 602.114 420.75 602.232C420.039 602.41 419.34 602.629 418.657 602.886L415.633 603.912C414.193 604.595 412.528 604.735 410.981 604.305C409.981 603.847 409.469 602.756 409.469 601.054C409.492 600.101 409.705 599.161 410.097 598.282C410.555 597.218 411.157 596.213 411.888 595.293C412.703 594.214 413.648 593.225 414.703 592.347C415.817 591.425 417.024 590.606 418.308 589.904V589.904Z" fill="white"/>
<path d="M432.241 590.384C432.325 589.178 432.584 587.989 433.008 586.849C433.487 585.584 434.135 584.381 434.939 583.27C436.777 580.704 439.221 578.569 442.08 577.03C443.351 576.299 444.742 575.768 446.197 575.459C447.192 575.191 448.248 575.191 449.244 575.459C450.06 575.716 450.742 576.254 451.151 576.964C451.646 577.792 451.918 578.721 451.942 579.67C451.942 580.477 451.942 581.372 451.942 582.288C451.942 583.205 451.942 584.1 451.942 584.929C451.862 586.137 451.596 587.327 451.151 588.464C450.676 589.74 450.036 590.957 449.244 592.086C447.402 594.646 444.949 596.768 442.08 598.283C440.809 599.026 439.419 599.572 437.962 599.897C436.973 600.154 435.928 600.154 434.939 599.897C434.119 599.625 433.433 599.082 433.008 598.37C432.538 597.534 432.275 596.609 432.241 595.664C432.241 594.879 432.241 594.028 432.241 593.089C432.241 592.151 432.194 591.322 432.241 590.384ZM446.197 588.005C446.197 587.656 446.197 587.242 446.197 586.783C446.197 586.325 446.197 585.889 446.197 585.452C446.197 585.016 446.197 584.558 446.197 584.143C446.197 583.729 446.197 583.358 446.197 583.03C446.164 582.62 446.046 582.219 445.848 581.852C445.694 581.55 445.43 581.31 445.103 581.176C444.707 581.076 444.29 581.076 443.894 581.176C443.286 581.306 442.705 581.527 442.173 581.83C441.562 582.171 440.993 582.574 440.475 583.03C440.013 583.44 439.607 583.902 439.265 584.405C438.944 584.875 438.687 585.381 438.497 585.911C438.322 586.405 438.213 586.918 438.172 587.438C438.147 587.83 438.147 588.224 438.172 588.616C438.172 589.053 438.172 589.511 438.172 589.947C438.172 590.384 438.172 590.842 438.172 591.278C438.145 591.656 438.145 592.035 438.172 592.413C438.167 592.787 438.265 593.157 438.457 593.485C438.648 593.814 438.926 594.091 439.265 594.289C439.893 594.595 440.87 594.399 442.173 593.678C443.364 593.082 444.367 592.202 445.08 591.126C445.665 590.17 446.014 589.104 446.103 588.005H446.197Z" fill="white"/>
<path d="M471.573 582.092C471.448 582.179 471.304 582.241 471.153 582.275C471.001 582.308 470.843 582.313 470.689 582.288C470.536 582.266 470.391 582.206 470.271 582.114L463.037 575.895V585.911C463.033 586.163 462.944 586.408 462.781 586.609C462.637 586.838 462.438 587.032 462.199 587.176L458.059 589.358C457.965 589.402 457.862 589.425 457.757 589.425C457.652 589.425 457.548 589.402 457.454 589.358C457.369 589.325 457.298 589.267 457.251 589.192C457.205 589.117 457.186 589.029 457.199 588.944V569.938C457.217 569.689 457.305 569.448 457.454 569.24C457.607 569.01 457.814 568.816 458.059 568.673L461.339 566.905C461.46 566.819 461.599 566.758 461.747 566.724C461.895 566.69 462.049 566.685 462.199 566.709C462.361 566.728 462.514 566.788 462.641 566.884L469.852 573.102V563.087C469.867 562.836 469.955 562.595 470.108 562.389C470.26 562.159 470.467 561.965 470.713 561.821L474.853 559.639C474.946 559.594 475.05 559.57 475.155 559.57C475.261 559.57 475.364 559.594 475.458 559.639C475.62 559.639 475.69 559.836 475.69 560.054V579.19C475.683 579.438 475.602 579.68 475.458 579.888C475.299 580.114 475.093 580.307 474.853 580.456L471.573 582.092Z" fill="white"/>
<path d="M490.786 555.406C490.126 555.753 489.516 556.178 488.972 556.672C488.522 557.094 488.124 557.563 487.786 558.068C487.498 558.528 487.272 559.019 487.111 559.53C486.968 560.009 486.867 560.498 486.809 560.992C486.809 561.276 486.809 561.647 486.809 562.105V563.523C486.809 564.003 486.809 564.483 486.809 564.942C486.809 565.4 486.809 565.727 486.809 565.989C486.843 566.38 486.945 566.763 487.111 567.124C487.237 567.432 487.476 567.687 487.786 567.844C488.167 567.995 488.59 568.033 488.995 567.953C489.623 567.829 490.227 567.616 490.786 567.32C491.326 567.026 491.84 566.69 492.321 566.316C492.787 565.946 493.208 565.529 493.577 565.072C493.94 564.62 494.23 564.12 494.438 563.589C494.653 563.052 494.764 562.482 494.764 561.909L492.112 563.349C492.018 563.393 491.915 563.416 491.81 563.416C491.705 563.416 491.601 563.393 491.507 563.349C491.422 563.316 491.35 563.257 491.304 563.182C491.258 563.107 491.239 563.02 491.251 562.934V559.792C491.266 559.541 491.355 559.3 491.507 559.094C491.653 558.859 491.861 558.663 492.112 558.526L499.741 554.381C499.836 554.341 499.939 554.32 500.044 554.32C500.148 554.32 500.251 554.341 500.346 554.381C500.431 554.42 500.501 554.483 500.547 554.561C500.593 554.639 500.612 554.729 500.602 554.817V558.592C500.593 559.891 500.333 561.177 499.834 562.389C499.317 563.696 498.621 564.936 497.764 566.076C496.854 567.282 495.809 568.394 494.647 569.393C493.463 570.398 492.168 571.282 490.786 572.033C489.53 572.763 488.155 573.293 486.716 573.604C485.718 573.86 484.666 573.86 483.669 573.604C482.851 573.339 482.165 572.804 481.738 572.099C481.25 571.277 480.986 570.355 480.97 569.415C480.97 568.629 480.97 567.778 480.97 566.84C480.97 565.902 480.97 565.029 480.97 564.156C481.015 562.955 481.267 561.769 481.715 560.643C482.206 559.372 482.863 558.163 483.669 557.043C484.531 555.801 485.554 554.665 486.716 553.661C487.942 552.554 489.309 551.594 490.786 550.802C492.021 550.101 493.362 549.579 494.764 549.253C495.752 549.049 496.776 549.049 497.764 549.253C498.494 549.385 499.161 549.729 499.671 550.235C500.127 550.712 500.398 551.319 500.439 551.959C500.446 552.155 500.38 552.348 500.253 552.504C500.119 552.695 499.945 552.858 499.741 552.984L495.554 555.166C495.229 555.341 494.973 555.384 494.81 555.297L494.275 555.057C493.922 554.842 493.51 554.728 493.089 554.73C492.273 554.773 491.482 555.005 490.786 555.406V555.406Z" fill="white"/>
<path d="M360.67 659.553C360.656 659.691 360.656 659.83 360.67 659.968V661.146C360.655 661.277 360.655 661.408 360.67 661.539C360.643 661.69 360.643 661.845 360.67 661.997C360.732 662.109 360.829 662.201 360.949 662.259C361.093 662.295 361.246 662.295 361.391 662.259C361.626 662.198 361.853 662.11 362.065 661.997C362.309 661.871 362.536 661.717 362.74 661.539C362.906 661.403 363.054 661.249 363.182 661.081L363.438 660.666L363.577 660.295C363.598 660.181 363.637 660.071 363.693 659.968C363.766 659.874 363.862 659.799 363.973 659.749L365.531 658.899C365.591 658.879 365.657 658.879 365.717 658.899C365.727 658.919 365.733 658.941 365.733 658.964C365.733 658.987 365.727 659.009 365.717 659.029C365.69 659.457 365.587 659.877 365.415 660.273C365.21 660.732 364.944 661.164 364.624 661.561C364.273 662.011 363.876 662.428 363.438 662.804C362.989 663.187 362.498 663.524 361.972 663.808C361.498 664.082 360.98 664.281 360.437 664.397C360.063 664.486 359.671 664.486 359.297 664.397C358.982 664.291 358.718 664.082 358.553 663.808C358.375 663.499 358.279 663.155 358.274 662.804C358.274 662.499 358.274 662.172 358.274 661.822C358.274 661.473 358.274 661.146 358.274 660.797C358.281 660.348 358.376 659.904 358.553 659.488C358.74 659.003 358.99 658.541 359.297 658.113C359.656 657.629 360.069 657.183 360.53 656.782C361.001 656.377 361.516 656.019 362.065 655.713C362.521 655.456 363.015 655.265 363.531 655.145C363.921 655.06 364.327 655.06 364.717 655.145C365.03 655.192 365.312 655.348 365.508 655.582C365.701 655.853 365.806 656.172 365.81 656.498C365.825 656.57 365.825 656.644 365.81 656.717L365.624 656.891L364.066 657.742C363.926 657.742 363.833 657.742 363.786 657.742C363.755 657.722 363.729 657.696 363.709 657.666C363.689 657.636 363.676 657.602 363.67 657.567L363.531 657.349C363.467 657.272 363.377 657.218 363.275 657.197C363.129 657.165 362.978 657.165 362.833 657.197C362.597 657.256 362.37 657.344 362.158 657.458C361.916 657.595 361.689 657.756 361.484 657.938C361.309 658.1 361.16 658.283 361.042 658.484C360.916 658.65 360.822 658.834 360.763 659.029C360.711 659.2 360.68 659.376 360.67 659.553V659.553Z" fill="white"/>
<path d="M367.508 655.822C367.544 655.367 367.646 654.92 367.81 654.491C367.994 654.008 368.236 653.547 368.532 653.116C368.872 652.658 369.262 652.234 369.695 651.851C370.161 651.431 370.685 651.071 371.253 650.781C371.725 650.5 372.244 650.294 372.788 650.17C373.17 650.078 373.57 650.078 373.951 650.17C374.253 650.277 374.508 650.477 374.672 650.738C374.862 651.051 374.966 651.403 374.975 651.763C374.975 652.069 374.975 652.418 374.975 652.767C374.975 653.116 374.975 653.444 374.975 653.771C374.949 654.227 374.847 654.676 374.672 655.102C374.489 655.585 374.247 656.046 373.951 656.477C373.247 657.432 372.325 658.23 371.253 658.811C370.771 659.09 370.245 659.296 369.695 659.422C369.314 659.523 368.912 659.523 368.532 659.422C368.223 659.315 367.966 659.106 367.81 658.833C367.625 658.526 367.521 658.182 367.508 657.829C367.508 657.524 367.508 657.197 367.508 656.847C367.508 656.498 367.508 656.149 367.508 655.822ZM372.765 654.927C372.765 654.796 372.765 654.644 372.765 654.469V653.465C372.765 653.313 372.765 653.16 372.765 653.051C372.783 652.899 372.783 652.745 372.765 652.593C372.688 652.484 372.584 652.394 372.462 652.331C372.31 652.296 372.15 652.296 371.997 652.331C371.775 652.388 371.564 652.477 371.369 652.593C371.136 652.715 370.917 652.861 370.718 653.029C370.543 653.187 370.387 653.362 370.253 653.553C370.141 653.733 370.047 653.923 369.974 654.12C369.905 654.311 369.858 654.509 369.834 654.709C369.834 654.84 369.834 654.993 369.834 655.146V656.149C369.834 656.324 369.834 656.455 369.834 656.586C369.836 656.729 369.875 656.869 369.948 656.995C370.021 657.12 370.125 657.227 370.253 657.306C370.509 657.306 370.858 657.306 371.369 657.066C371.817 656.841 372.194 656.51 372.462 656.106C372.626 655.732 372.705 655.331 372.695 654.927H372.765Z" fill="white"/>
<path d="M376.626 650.847C376.656 650.394 376.75 649.946 376.905 649.516C377.092 649.038 377.342 648.583 377.649 648.163C377.976 647.701 378.358 647.277 378.789 646.898C379.253 646.469 379.778 646.102 380.348 645.806C380.826 645.521 381.353 645.314 381.906 645.196C382.28 645.107 382.672 645.107 383.046 645.196C383.361 645.302 383.625 645.511 383.79 645.785C383.971 646.1 384.067 646.452 384.069 646.81C384.069 647.116 384.069 647.443 384.069 647.792C384.069 648.141 384.069 648.469 384.069 648.796C384.042 649.249 383.948 649.697 383.79 650.127C383.603 650.612 383.353 651.074 383.046 651.502C382.719 651.963 382.337 652.388 381.906 652.767C381.431 653.184 380.909 653.55 380.348 653.858C379.867 654.135 379.34 654.334 378.789 654.447C378.419 654.559 378.02 654.559 377.649 654.447C377.337 654.348 377.072 654.147 376.905 653.88C376.73 653.562 376.635 653.212 376.626 652.854C376.626 652.549 376.626 652.222 376.626 651.873C376.626 651.523 376.603 651.196 376.626 650.847ZM381.859 649.952C381.872 649.8 381.872 649.647 381.859 649.494C381.871 649.327 381.871 649.159 381.859 648.992C381.872 648.825 381.872 648.658 381.859 648.49C381.872 648.352 381.872 648.214 381.859 648.076C381.897 647.925 381.897 647.768 381.859 647.618C381.798 647.511 381.699 647.426 381.58 647.378C381.429 647.332 381.267 647.332 381.115 647.378C380.884 647.42 380.664 647.501 380.464 647.618C380.224 647.74 380.005 647.894 379.813 648.076C379.634 648.225 379.484 648.402 379.371 648.599C379.238 648.772 379.136 648.964 379.068 649.167C379.033 649.355 379.033 649.546 379.068 649.734C379.055 649.887 379.055 650.04 379.068 650.192C379.056 650.359 379.056 650.527 379.068 650.694C379.057 650.861 379.057 651.029 379.068 651.196C379.055 651.334 379.055 651.473 379.068 651.611C379.058 651.756 379.092 651.9 379.166 652.028C379.24 652.156 379.351 652.261 379.487 652.331C379.72 652.44 380.092 652.331 380.58 652.091C381.028 651.866 381.405 651.535 381.673 651.131C381.842 650.759 381.906 650.354 381.859 649.952V649.952Z" fill="white"/>
<path d="M391.931 645.697C391.964 645.684 392 645.676 392.036 645.676C392.072 645.676 392.107 645.684 392.14 645.697C392.155 645.725 392.162 645.754 392.162 645.785C392.162 645.815 392.155 645.845 392.14 645.872V647.05C392.168 647.136 392.168 647.227 392.14 647.312C392.097 647.404 392.023 647.48 391.931 647.53L386.395 650.52C386.36 650.539 386.32 650.549 386.279 650.549C386.238 650.549 386.198 650.539 386.163 650.52C386.148 650.496 386.141 650.47 386.141 650.443C386.141 650.417 386.148 650.39 386.163 650.367V643.123C386.132 643.038 386.132 642.946 386.163 642.861C386.215 642.768 386.296 642.692 386.395 642.643L387.954 641.792C387.954 641.792 388.116 641.792 388.186 641.792C388.256 641.792 388.186 641.792 388.186 641.944V647.683L391.931 645.697Z" fill="white"/>
<path d="M400.84 634.831C401.002 634.831 401.119 634.7 401.188 634.831C401.258 634.962 401.351 634.831 401.375 634.984L403.98 640.635V640.766C404.003 640.837 404.003 640.913 403.98 640.984L403.794 641.159L402.282 641.988C402.169 642.028 402.045 642.028 401.933 641.988C401.933 641.988 401.933 641.988 401.933 641.857L401.607 641.115L398.42 642.839L398.095 643.952C398.062 644.038 398.015 644.119 397.955 644.192C397.87 644.308 397.759 644.404 397.63 644.475L396.118 645.305C396.058 645.325 395.992 645.325 395.932 645.305C395.919 645.285 395.913 645.262 395.913 645.239C395.913 645.216 395.919 645.194 395.932 645.174C395.914 645.109 395.914 645.042 395.932 644.977L398.537 636.511C398.565 636.386 398.62 636.267 398.7 636.162C398.788 636.027 398.918 635.921 399.072 635.857L400.84 634.831ZM398.909 640.766L400.84 639.719L399.863 637.537L398.909 640.766Z" fill="white"/>
<path d="M411.446 635.136C411.482 635.117 411.522 635.107 411.562 635.107C411.603 635.107 411.643 635.117 411.679 635.136C411.691 635.16 411.698 635.186 411.698 635.213C411.698 635.239 411.691 635.265 411.679 635.289V636.489C411.699 636.576 411.699 636.665 411.679 636.751C411.613 636.835 411.535 636.908 411.446 636.969L405.91 639.959C405.91 639.959 405.747 639.959 405.678 639.959C405.663 639.936 405.656 639.909 405.656 639.882C405.656 639.856 405.663 639.829 405.678 639.806V632.562C405.661 632.475 405.661 632.386 405.678 632.3C405.737 632.218 405.817 632.15 405.91 632.104L407.469 631.252C407.506 631.238 407.545 631.231 407.585 631.231C407.625 631.231 407.664 631.238 407.701 631.252C407.701 631.252 407.701 631.253 407.701 631.427V637.144L411.446 635.136Z" fill="white"/>
<path d="M416.889 631.995H416.726L415.61 630.729V634.46C415.623 634.547 415.623 634.635 415.61 634.722C415.544 634.799 415.466 634.865 415.377 634.918L413.796 635.769C413.763 635.783 413.727 635.79 413.691 635.79C413.655 635.79 413.619 635.783 413.586 635.769C413.586 635.769 413.586 635.769 413.586 635.595V628.416C413.556 628.331 413.556 628.239 413.586 628.154C413.63 628.063 413.703 627.986 413.796 627.936L415.191 627.172C415.346 627.085 415.462 627.085 415.54 627.172C415.54 627.172 415.68 627.172 415.703 627.281L417.633 629.333L419.587 625.165C419.624 625.073 419.67 624.985 419.727 624.903C419.829 624.78 419.955 624.676 420.099 624.598L421.471 623.834C421.508 623.818 421.547 623.81 421.588 623.81C421.628 623.81 421.667 623.818 421.704 623.834C421.704 623.834 421.704 623.834 421.704 623.987V631.231C421.734 631.316 421.734 631.408 421.704 631.493C421.645 631.581 421.565 631.655 421.471 631.711L419.913 632.562C419.913 632.562 419.75 632.562 419.68 632.562C419.611 632.562 419.68 632.562 419.68 632.409V628.7L418.564 631.165L418.401 631.427C418.332 631.528 418.235 631.611 418.122 631.667L417.354 632.082C417.279 632.125 417.19 632.14 417.103 632.124C417.017 632.108 416.941 632.061 416.889 631.995V631.995Z" fill="white"/>
<path d="M424.286 629.965C424.253 629.98 424.217 629.988 424.181 629.988C424.145 629.988 424.109 629.98 424.076 629.965C424.076 629.965 424.076 629.965 424.076 629.812V622.568C424.046 622.483 424.046 622.391 424.076 622.306C424.127 622.219 424.199 622.144 424.286 622.088L428.147 620.015C428.554 619.756 429.013 619.578 429.496 619.491C429.784 619.411 430.091 619.411 430.38 619.491C430.592 619.603 430.757 619.78 430.845 619.993C430.94 620.238 430.987 620.497 430.985 620.757C431.009 620.96 431.009 621.165 430.985 621.368C430.985 621.542 430.985 621.717 430.798 621.87C430.731 622.013 430.653 622.151 430.566 622.284L430.38 622.546C430.512 622.545 430.641 622.577 430.756 622.638C430.87 622.7 430.965 622.788 431.031 622.895C431.178 623.157 431.243 623.452 431.217 623.746C431.214 624.078 431.167 624.408 431.078 624.728C430.968 625.087 430.812 625.431 430.612 625.754C430.368 626.118 430.079 626.455 429.752 626.758C429.368 627.112 428.938 627.42 428.472 627.674L424.286 629.965ZM428.775 622.066C428.783 621.994 428.77 621.922 428.737 621.856C428.705 621.791 428.653 621.735 428.589 621.695C428.491 621.679 428.391 621.682 428.295 621.704C428.198 621.727 428.108 621.768 428.031 621.826L426.193 622.83V624.052L428.031 623.048C428.252 622.938 428.443 622.781 428.589 622.59C428.698 622.433 428.762 622.253 428.775 622.066ZM426.193 627.194L428.147 626.125C428.387 626.012 428.588 625.838 428.728 625.623C428.857 625.441 428.929 625.23 428.938 625.012C428.947 624.937 428.932 624.862 428.894 624.796C428.857 624.73 428.799 624.676 428.728 624.641C428.627 624.625 428.523 624.629 428.423 624.651C428.324 624.674 428.229 624.715 428.147 624.772L426.193 625.819V627.194Z" fill="white"/>
<path d="M439.94 613.644C439.973 613.63 440.008 613.623 440.044 613.623C440.08 613.623 440.116 613.63 440.149 613.644C440.184 613.66 440.213 613.685 440.233 613.716C440.254 613.746 440.265 613.782 440.265 613.818V618.182C440.263 618.695 440.169 619.204 439.986 619.688C439.819 620.188 439.567 620.659 439.242 621.084C438.908 621.534 438.526 621.951 438.102 622.328C437.645 622.701 437.154 623.037 436.637 623.332C436.166 623.582 435.667 623.779 435.148 623.921C434.767 624.013 434.366 624.013 433.985 623.921C433.67 623.812 433.411 623.593 433.264 623.31C433.059 622.933 432.962 622.511 432.985 622.088V617.615C432.965 617.529 432.965 617.439 432.985 617.353C433.044 617.265 433.124 617.191 433.217 617.135L434.776 616.284C434.812 616.268 434.852 616.26 434.892 616.26C434.932 616.26 434.972 616.268 435.008 616.284C435.023 616.307 435.03 616.334 435.03 616.36C435.03 616.387 435.023 616.414 435.008 616.437V620.801C435.008 621.259 435.125 621.543 435.357 621.674C435.59 621.804 435.962 621.674 436.451 621.477C436.88 621.245 437.24 620.914 437.497 620.517C437.733 620.139 437.861 619.711 437.869 619.273V614.909C437.839 614.824 437.839 614.733 437.869 614.648C437.913 614.556 437.986 614.48 438.079 614.429L439.94 613.644Z" fill="white"/>
<path d="M445.941 616.262C445.878 616.239 445.822 616.201 445.778 616.153L444.661 614.909V618.641C444.682 618.727 444.682 618.816 444.661 618.903C444.61 618.983 444.538 619.051 444.452 619.099L442.87 619.95C442.838 619.964 442.802 619.971 442.766 619.971C442.73 619.971 442.694 619.964 442.661 619.95C442.661 619.95 442.661 619.95 442.661 619.775V612.553C442.633 612.46 442.633 612.362 442.661 612.269C442.712 612.189 442.784 612.121 442.87 612.073L444.266 611.309C444.437 611.222 444.553 611.222 444.615 611.309H444.778L446.708 613.382L448.639 609.214C448.705 609.134 448.76 609.046 448.802 608.953C448.904 608.829 449.03 608.726 449.174 608.647L450.546 607.883C450.583 607.868 450.622 607.86 450.663 607.86C450.703 607.86 450.742 607.868 450.779 607.883C450.779 607.883 450.779 607.883 450.779 608.036V615.324C450.809 615.409 450.809 615.501 450.779 615.586C450.72 615.674 450.64 615.749 450.546 615.804L448.988 616.655C448.951 616.671 448.912 616.679 448.872 616.679C448.831 616.679 448.792 616.671 448.755 616.655C448.755 616.655 448.755 616.655 448.755 616.502V612.793L447.639 615.237L447.476 615.52C447.407 615.622 447.31 615.704 447.197 615.76L446.429 616.175C446.403 616.211 446.37 616.242 446.332 616.266C446.293 616.29 446.25 616.306 446.204 616.315C446.159 616.323 446.112 616.322 446.067 616.313C446.022 616.304 445.979 616.287 445.941 616.262V616.262Z" fill="white"/>
<path opacity="0.3" d="M321.965 762.675L491.414 670.9C494.182 669.394 496.438 670.463 496.438 673.278C496.316 674.865 495.798 676.403 494.925 677.768C494.052 679.132 492.849 680.285 491.414 681.133L321.965 772.908C319.174 774.414 316.917 773.345 316.917 770.508C317.044 768.922 317.567 767.387 318.444 766.026C319.321 764.665 320.527 763.517 321.965 762.675V762.675Z" fill="white"/>
<path d="M321.965 762.674L449.197 693.745C451.988 692.24 454.245 693.309 454.245 696.145C454.118 697.731 453.595 699.267 452.718 700.628C451.841 701.989 450.635 703.137 449.197 703.979L321.965 772.908C319.174 774.413 316.917 773.344 316.917 770.508C317.044 768.922 317.567 767.386 318.444 766.025C319.321 764.664 320.527 763.516 321.965 762.674V762.674Z" fill="white"/>
<path d="M485.46 264.175L333.897 345.978V508.013C330.172 508.607 326.593 509.835 323.337 511.635C305.869 521.083 291.704 544.104 291.704 563.043C291.704 573.19 295.821 580.063 302.287 582.834L313.429 587.874C319.104 590.755 326.85 590.253 335.409 585.692C352.878 576.223 367.043 553.202 367.043 534.285V385.908L464.433 333.322V437.796C460.698 438.387 457.111 439.615 453.849 441.419C436.381 450.888 422.216 473.887 422.216 492.827C422.216 502.973 426.309 509.824 432.776 512.595L443.615 517.505C449.337 520.56 457.199 520.102 465.898 515.323C483.366 505.853 497.531 482.855 497.531 463.937V269.739L485.46 264.175Z" fill="url(#paint6_linear)"/>
<path opacity="0.15" d="M485.46 264.175L333.897 345.978V508.013C330.172 508.607 326.593 509.835 323.337 511.635C305.869 521.083 291.704 544.104 291.704 563.043C291.704 573.19 295.821 580.063 302.287 582.834L313.429 587.874C319.104 590.755 326.85 590.253 335.409 585.692C352.878 576.223 367.043 553.202 367.043 534.285V385.908L464.433 333.322V437.796C460.698 438.387 457.111 439.615 453.849 441.419C436.381 450.888 422.216 473.887 422.216 492.827C422.216 502.973 426.309 509.824 432.776 512.595L443.615 517.505C449.337 520.56 457.199 520.102 465.898 515.323C483.366 505.853 497.531 482.855 497.531 463.937V269.739L485.46 264.175Z" fill="black"/>
<path d="M364.461 548.969L345.853 513.446L333.897 508.013C330.172 508.607 326.593 509.835 323.337 511.635C315.715 516.035 309.206 521.939 304.264 528.939L360.088 559.181C361.825 555.888 363.287 552.474 364.461 548.969V548.969Z" fill="url(#paint7_linear)"/>
<path opacity="0.4" d="M364.461 548.969L345.853 513.446L333.897 508.013C330.172 508.607 326.593 509.835 323.337 511.635C315.715 516.035 309.206 521.939 304.264 528.939L360.088 559.181C361.825 555.888 363.287 552.474 364.461 548.969V548.969Z" fill="white"/>
<path d="M494.88 478.6L476.272 443.055L464.293 437.622C460.575 438.217 457.004 439.444 453.756 441.244C446.122 445.636 439.604 451.542 434.66 458.547L490.484 488.79C492.238 485.509 493.708 482.101 494.88 478.6V478.6Z" fill="url(#paint8_linear)"/>
<path opacity="0.4" d="M494.88 478.6L476.272 443.055L464.293 437.622C460.575 438.217 457.004 439.444 453.756 441.244C446.122 445.636 439.604 451.542 434.66 458.547L490.484 488.79C492.238 485.509 493.708 482.101 494.88 478.6V478.6Z" fill="white"/>
<path opacity="0.6" d="M497.415 269.608L485.46 264.175L333.897 345.978L345.853 351.411L497.415 269.608Z" fill="white"/>
<path d="M345.853 351.411V513.446C342.127 514.04 338.549 515.268 335.293 517.069C317.825 526.517 303.659 549.537 303.659 568.476C303.659 587.416 317.848 595.053 335.316 585.605C352.785 576.157 366.95 553.115 366.95 534.197V385.821L476.272 326.798V443.121C472.539 443.714 468.952 444.942 465.689 446.743C448.22 456.213 434.055 479.211 434.055 498.151C434.055 517.09 448.244 524.749 465.712 515.279C483.18 505.809 497.345 482.811 497.345 463.893V269.695L345.853 351.411Z" fill="url(#paint9_linear)"/>
<path d="M965.057 538.059C972.198 554.664 950.566 572.971 918.537 580.412C886.508 587.853 837.895 581.197 805.982 563.938C774.07 546.678 800.4 512.181 830.987 500.18C861.574 488.179 943.472 502.536 965.057 538.059Z" fill="#56CDD3"/>
<path opacity="0.15" d="M965.057 538.059C972.198 554.664 950.566 572.971 918.537 580.412C886.508 587.853 837.895 581.197 805.982 563.938C774.07 546.678 800.4 512.181 830.987 500.18C861.574 488.179 943.472 502.536 965.057 538.059Z" fill="black"/>
<path d="M917.816 554.708C926.934 476.789 914.793 463.435 886.741 417.526L784.048 426.254L832.778 498.26C832.778 498.26 840.547 597.497 844.826 636.991C847.269 659.749 856.201 685.737 867.296 728.526C873.808 753.663 885.904 792.328 890.556 813.493C891.905 819.908 909.303 827.153 921.585 808.365C922.538 783.316 921.817 729.137 921.585 710.175C921.096 665.379 905.512 635.987 905.512 635.987C905.512 635.987 912.699 598.413 917.816 554.708Z" fill="#FFA8A7"/>
<path d="M796.19 730.446C795.957 691.061 794.282 681.875 792.561 670.419C790.567 655.81 786.296 641.555 779.885 628.11L847.129 503.54L784.048 428.523C783.025 433.083 709.267 608.254 718.664 640.788C723.037 655.909 747.832 729.377 767.72 786.24C769.506 789.593 771.105 793.03 772.511 796.539C773.767 799.921 798.493 785.258 798.493 785.258C801.54 778.058 797.655 772.821 797.539 770.202C797.05 757.765 796.306 750.172 796.19 730.446Z" fill="#FFA8A7"/>
<path d="M780.14 438.582C770.836 461.973 747.158 521.127 731.806 570.309C757.392 581.481 780.14 585.583 804.354 582.703L834.988 525.971C836.104 539.652 837.523 556.934 839.011 574.324C841.337 573.517 843.663 572.644 845.989 571.728C874.204 560.818 898.906 549.493 918.817 544.976C925.004 483.466 916.095 465.312 895.324 431.512L780.14 438.582Z" fill="#F28F8F"/>
<path d="M776.535 436.946C760.858 461.624 688.147 488.79 688.147 488.79C688.147 488.79 685.635 521.694 719.176 536.794C752.717 551.893 776.535 436.946 776.535 436.946Z" fill="#56CDD3"/>
<path opacity="0.15" d="M776.535 436.946C760.858 461.624 688.147 488.79 688.147 488.79C688.147 488.79 685.635 521.694 719.176 536.794C752.717 551.893 776.535 436.946 776.535 436.946Z" fill="black"/>
<path d="M784.048 426.341C762.137 459.246 732.178 472.708 694.869 526.386C707.802 549.864 755.95 573.255 798.469 571.815C846.013 570.2 896.627 532.844 924.446 527.826C952.799 522.698 965.057 538.059 965.057 538.059C965.057 538.059 944.124 491.888 890.346 421.824L784.048 426.341Z" fill="url(#paint10_linear)"/>
<path d="M932.842 828.091C935.936 834.069 938.239 851.744 938.239 851.744C938.239 851.744 936.727 858.29 927.26 864.399L917.002 841.27L932.842 828.091Z" fill="#263238"/>
<path d="M927.26 864.399L902.721 862.021L892.789 844.063L921.352 851.045L927.26 864.399Z" fill="black"/>
<path d="M890.556 813.646L889.393 809.151C886.625 811.202 885.206 836.099 879.693 854.1C874.576 870.618 859.806 882.139 855.968 889.645C850.688 899.704 867.389 907.865 889.021 898.678C899.743 894.118 915.235 883.885 918.212 875.833C921.189 867.781 919.701 854.34 922.282 848.34C924.864 842.339 932.424 834.462 932.959 828.091C933.195 822.387 931.866 816.722 929.098 811.638C926.051 806.576 924.911 801.012 921.933 801.121L921.794 805.769C920.957 808.976 916.421 813.188 905.093 816.112C899.604 817.486 894.138 817.792 890.556 813.646Z" fill="#37474F"/>
<path d="M812.867 794.248C816.891 799.725 822.008 816.897 822.008 816.897C822.008 816.897 821.543 823.596 813.146 830.971L799.307 809.522L812.867 794.248Z" fill="#263238"/>
<path d="M813.146 831.058L788.468 832.149L775.768 815.806L805.145 818.665L813.146 831.058Z" fill="black"/>
<path d="M767.72 786.24L766.231 782.029C762.626 782.858 763.905 789.404 764.068 791.411C764.393 797.194 764.882 802.954 765.091 808.736C765.372 815.13 765.046 821.534 764.114 827.873C763.161 833.939 762.998 840.245 760.3 845.918C757.601 851.591 751.67 855.715 747.111 860.014C745.871 861.011 744.932 862.298 744.39 863.745C743.692 866.45 745.948 869.047 748.414 870.596C752.753 873.173 757.818 874.466 762.951 874.306C768.054 874.121 773.1 873.239 777.931 871.687C786.592 869.25 794.472 864.834 800.865 858.835C806.959 852.878 806.657 843.278 806.285 835.51C805.982 829.204 803.959 822.112 805.54 815.872C807.122 809.631 813.356 800.598 812.867 794.335C812.13 788.983 809.881 783.914 806.355 779.65C802.54 775.068 799.214 768.959 797.539 770.202L797.865 774.152C797.539 777.468 799.097 782.552 788.351 787.047C783.257 789.164 771.906 789.884 767.72 786.24Z" fill="#37474F"/>
<path d="M837.802 335.33C835.388 340.313 833.253 345.412 831.405 350.604C829.991 355.51 826.672 359.744 822.101 362.474C818.504 365.066 814.602 367.262 810.471 369.02C805.78 370.096 800.93 370.436 796.12 370.024C786.652 369.773 777.337 367.716 768.743 363.979C760.215 360.346 752.705 354.9 746.809 348.073C740.249 340.283 735.621 329.962 736.621 319.903C737.575 310.499 741.808 301.618 748.251 296.359C743.576 299.086 739.622 302.773 736.689 307.143C733.755 311.512 731.919 316.45 731.318 321.583C727.41 306.309 732.364 295.268 740.761 285.078C749.158 274.888 758.485 271.768 769.255 263.76C776.396 258.436 780.885 254.138 783.211 246.304C785.537 238.471 785.002 230.201 785.002 222.433C785.037 213.554 787.348 204.814 791.74 196.949C796.133 189.084 802.477 182.325 810.239 177.244C818.163 172.158 827.303 168.987 836.848 168.014C850.554 166.75 864.359 166.75 878.065 168.014C889.183 169.28 900.953 172.509 909.699 179.055C913.338 181.753 916.276 185.192 918.291 189.112C920.306 193.032 921.345 197.33 921.329 201.682C920.794 214.469 914.653 225.182 904.721 233.976C910.843 237.756 915.742 243.039 918.886 249.25C922.166 256.232 923.817 262.058 921.957 269.782C920.649 275.76 917.398 281.21 912.653 285.384C913.374 278.118 912.653 274.757 909.652 270.503C910.366 274.566 910.327 278.715 909.536 282.765C908.637 287.172 907.029 291.424 904.767 295.377C901.435 301.518 896.376 306.687 890.137 310.324C883.298 313.99 875.134 314.535 867.319 315.452C859.504 316.368 851.269 317.939 845.571 323.045C842.086 326.58 839.438 330.766 837.802 335.33Z" fill="#263238"/>
<path d="M795.353 195.136C794.769 195.953 794.02 196.654 793.148 197.199C792.276 197.744 791.298 198.122 790.269 198.313C789.241 198.503 788.183 198.502 787.156 198.309C786.128 198.116 785.151 197.735 784.281 197.187C783.41 196.64 782.663 195.937 782.082 195.119C781.501 194.301 781.098 193.383 780.894 192.419C780.691 191.455 780.693 190.462 780.899 189.498C781.105 188.534 781.511 187.618 782.094 186.801L795.353 195.136Z" fill="#263238"/>
<path d="M796.562 195.485C794.449 195.618 792.366 194.959 790.772 193.651C789.178 192.344 788.202 190.496 788.06 188.514C787.918 186.532 788.622 184.578 790.015 183.082C791.409 181.587 793.379 180.672 795.492 180.539L796.562 195.485Z" fill="#263238"/>
<path d="M814.449 286.998C806.378 285.667 798.516 284.816 788.049 290.162C777.582 295.508 764.44 311.633 753.019 326.995C741.599 342.356 729.759 355.36 729.759 355.36C729.759 355.36 689.682 324.66 683.379 313.903C680.076 308.295 682.914 305.524 679.774 294.439C676.215 281.849 683.704 274.605 675.68 275.456C666.771 276.416 667.841 290.73 667.841 290.73C664.422 285.114 661.683 279.156 659.677 272.968C655.025 259.2 641.72 260.727 636.115 273.841C630.393 287.304 636.115 301.312 652.141 323.263C668.818 346.065 703.313 379.537 715.338 389.814C733.411 405.088 742.389 396.753 757.02 382.57C778.117 362.103 809.704 328.871 809.704 328.871L799.028 309.844L814.449 286.998Z" fill="#FFA8A7"/>
<path d="M886.508 394.157C888.695 386.018 889.974 377.355 895.022 359.245C881.066 339.061 874.971 313.728 885.392 292.65L861.69 291.275C850.595 290.621 832.638 288.919 823.567 288.439L814.449 287.02C801.865 299.632 783.862 309.189 773.442 325.118C763.579 340.13 765.231 357.172 778.094 372.053C778.535 379.799 784.025 406.616 784.071 412.573V414.755C784.071 414.755 795.701 428.021 829.173 428.37C858.62 428.698 884.485 413.445 884.485 413.445C883.912 406.954 884.598 400.419 886.508 394.157V394.157Z" fill="url(#paint11_linear)"/>
<path opacity="0.1" d="M813.333 373.122C813.333 373.122 821.59 384.032 841.105 382.657C860.62 381.283 868.877 364.721 868.877 364.721C868.877 364.721 866.319 385.036 844.431 387.392C818.171 390.273 813.333 373.122 813.333 373.122Z" fill="black"/>
<path d="M881.554 190.14C887.997 195.224 896.278 206.526 897.185 240.326C897.929 269.062 888.765 276.569 884.089 278.838C879.414 281.107 871.041 280.256 861.992 279.187V290.206C861.992 290.206 861.992 295.945 853.084 302.098C846.269 306.811 831.731 311.415 823.706 306.091C816.566 301.356 823.706 288.177 823.706 288.177V259.811C823.706 259.811 815.961 265.048 806.61 257.803C798.911 251.825 795.887 241.286 801.354 235.329C802.764 233.911 804.524 232.841 806.478 232.21C808.433 231.579 810.523 231.409 812.564 231.712C814.606 232.016 816.536 232.785 818.187 233.952C819.838 235.119 821.158 236.648 822.032 238.405C834.101 237.69 845.779 234.108 855.968 227.997C862.967 223.871 868.896 218.331 873.323 211.781C877.749 205.232 880.561 197.838 881.554 190.14Z" fill="#FFA8A7"/>
<path d="M861.923 279.296C852.409 278.51 831.685 273.928 828.359 266.553C829.749 270.26 832.293 273.491 835.662 275.827C841.71 280.431 861.923 285.1 861.923 285.1V279.296Z" fill="#F28F8F"/>
<path d="M861.62 235.089C861.409 236.413 860.727 237.632 859.684 238.547C858.642 239.462 857.299 240.019 855.876 240.128C854.453 240.237 853.033 239.891 851.846 239.146C850.659 238.402 849.775 237.302 849.339 236.027C851.138 237.318 853.386 237.933 855.642 237.751C857.915 237.581 860.043 236.633 861.62 235.089V235.089Z" fill="#263238"/>
<path d="M893.486 232.514C893.188 233.827 892.425 235.006 891.321 235.859C890.216 236.712 888.836 237.189 887.406 237.212C885.975 237.235 884.579 236.802 883.444 235.985C882.31 235.167 881.504 234.013 881.159 232.71C882.885 234.095 885.091 234.839 887.362 234.803C889.633 234.766 891.811 233.952 893.486 232.514Z" fill="#263238"/>
<path d="M855.48 221.386L847.059 225.531C846.487 224.451 846.383 223.204 846.769 222.053C847.155 220.902 848.001 219.935 849.13 219.356C849.686 219.087 850.295 218.925 850.92 218.881C851.545 218.838 852.172 218.913 852.765 219.103C853.358 219.292 853.904 219.592 854.371 219.984C854.837 220.377 855.214 220.853 855.48 221.386Z" fill="#263238"/>
<path d="M862.946 259.44L872.017 262.015C871.864 262.586 871.59 263.122 871.21 263.591C870.831 264.06 870.354 264.452 869.808 264.744C869.263 265.035 868.66 265.22 868.036 265.287C867.413 265.355 866.781 265.303 866.179 265.135C864.959 264.763 863.94 263.962 863.337 262.899C862.734 261.837 862.594 260.597 862.946 259.44V259.44Z" fill="#F28F8F"/>
<path d="M892.998 222.848L885.043 217.851C885.37 217.355 885.8 216.925 886.307 216.587C886.814 216.249 887.388 216.01 887.995 215.884C888.602 215.758 889.23 215.747 889.842 215.853C890.453 215.958 891.036 216.178 891.556 216.498C892.618 217.181 893.36 218.221 893.628 219.403C893.896 220.584 893.671 221.818 892.998 222.848V222.848Z" fill="#263238"/>
<path d="M869.738 229.656L872.552 251.476L884.461 246.828L869.738 229.656Z" fill="#F28F8F"/>
<path d="M1021.49 253.112C1019.72 226.535 1015.04 212.2 1001.67 204.912C995.621 201.595 989.876 201.246 986.038 203.188C981.619 205.37 979.688 210.585 982.549 217.807C985.025 223.847 986.78 230.126 987.783 236.529C987.783 236.529 979.246 224.746 971.617 229.11C964.639 233.059 975.385 234.434 980.921 246.413C985.712 256.974 990.713 257.323 990.853 263.869C990.853 265.724 990.132 271.572 989.015 278.947C987.248 290.49 984.666 305.807 982.991 315.408C982.061 320.907 981.409 324.529 981.409 324.529C981.409 324.529 974.966 322.674 967.104 320.165C957.103 316.892 945.635 311.742 935.564 307.335C915.863 298.759 902.558 292.061 885.462 292.693C885.462 292.693 872.785 300.854 876.483 325.598C880.391 351.586 895.091 359.31 895.091 359.31C897.068 352.437 897.929 347.811 899.534 341.003C917.305 349.12 960.01 359.157 979.223 365.158C999.157 371.398 1008.58 369.914 1013.46 353.288C1015.32 346.96 1018 327.104 1019.81 305.873C1021.54 288.336 1022.1 270.714 1021.49 253.112V253.112Z" fill="#FFA8A7"/>
<path d="M783.281 405.983C783.281 405.983 828.428 431.709 884.462 404.543L890.346 421.824C872.11 438.778 816.682 447.812 784.048 426.341L783.281 405.983Z" fill="#455A64"/>
<path d="M826.544 172.662C813.867 179.491 801.563 194.722 802.331 226.099C799.506 227.779 797.247 230.174 795.815 233.009C794.382 235.843 793.835 239 794.236 242.115C795.073 251.912 803.168 259.854 812.332 259.833C821.497 259.811 828.242 251.846 827.428 242.049C827.189 238.63 826.006 235.327 823.995 232.466C821.985 229.605 819.216 227.283 815.961 225.728C815.961 225.488 812.728 214.992 821.846 196.009C833.034 172.662 867.924 167.643 882.88 168.756C882.88 165.112 852.27 158.828 826.544 172.662Z" fill="#56CDD3"/>
<path opacity="0.45" d="M826.544 172.662C813.867 179.491 801.563 194.722 802.331 226.099C799.506 227.779 797.247 230.174 795.815 233.009C794.382 235.843 793.835 239 794.236 242.115C795.073 251.912 803.168 259.854 812.332 259.833C821.497 259.811 828.242 251.846 827.428 242.049C827.189 238.63 826.006 235.327 823.995 232.466C821.985 229.605 819.216 227.283 815.961 225.728C815.961 225.488 812.728 214.992 821.846 196.009C833.034 172.662 867.924 167.643 882.88 168.756C882.88 165.112 852.27 158.828 826.544 172.662Z" fill="black"/>
<path d="M827.684 242.049C826.846 232.077 818.612 224.026 809.308 224.048C807.897 224.052 806.495 224.25 805.145 224.637C804.028 224.964 800.493 226.339 799.888 226.579C793.399 229.001 789.165 235.743 789.84 243.686C790.677 253.636 798.888 261.709 808.192 261.687C809.901 261.68 811.595 261.384 813.193 260.814C814.007 260.531 817.24 259.309 818.031 258.982C824.288 256.45 828.335 249.817 827.684 242.049Z" fill="#56CDD3"/>
<path opacity="0.3" d="M827.684 242.049C826.846 232.077 818.612 224.026 809.308 224.048C807.897 224.052 806.495 224.25 805.145 224.637C804.028 224.964 800.493 226.339 799.888 226.579C793.399 229.001 789.165 235.743 789.84 243.686C790.677 253.636 798.888 261.709 808.192 261.687C809.901 261.68 811.595 261.384 813.193 260.814C814.007 260.531 817.24 259.309 818.031 258.982C824.288 256.45 828.335 249.817 827.684 242.049Z" fill="black"/>
<path d="M823.52 243.62C822.683 233.649 814.472 225.597 805.168 225.619C795.864 225.641 788.886 233.736 789.84 243.686C790.793 253.636 798.888 261.709 808.192 261.687C817.496 261.665 824.358 253.57 823.52 243.62Z" fill="#56CDD3"/>
<path opacity="0.1" d="M823.52 243.62C822.683 233.649 814.472 225.597 805.168 225.619C795.864 225.641 788.886 233.736 789.84 243.686C790.793 253.636 798.888 261.709 808.192 261.687C817.496 261.665 824.358 253.57 823.52 243.62Z" fill="black"/>
<path d="M814.635 243.642C814.577 241.468 813.655 239.392 812.05 237.822C810.445 236.252 808.273 235.3 805.959 235.154C801.563 235.154 798.33 238.973 798.725 243.664C798.784 245.839 799.706 247.914 801.311 249.484C802.916 251.054 805.088 252.006 807.401 252.152C811.774 252.152 815.031 248.333 814.635 243.642Z" fill="#455A64"/>
<path d="M683.588 192.54L698.056 223.59C696.98 223.642 695.924 223.879 694.939 224.288C693.232 224.996 691.787 226.164 690.787 227.642C689.787 229.121 689.276 230.844 689.319 232.595C689.362 234.345 689.958 236.045 691.03 237.478C692.102 238.911 693.604 240.014 695.344 240.648C697.084 241.281 698.985 241.417 700.808 241.037C702.63 240.658 704.291 239.78 705.582 238.515C706.873 237.25 707.735 235.654 708.06 233.93C708.385 232.206 708.157 230.43 707.406 228.826L694.451 200.984L720.874 181.346L733.783 208.905C732.7 208.958 731.636 209.194 730.643 209.603C728.936 210.31 727.49 211.475 726.488 212.952C725.486 214.429 724.974 216.152 725.014 217.902C725.055 219.652 725.648 221.352 726.718 222.786C727.788 224.22 729.286 225.325 731.025 225.961C732.764 226.597 734.664 226.736 736.487 226.359C738.309 225.983 739.972 225.108 741.265 223.846C742.558 222.584 743.423 220.99 743.752 219.267C744.08 217.544 743.857 215.768 743.111 214.163V214.163L721.572 168.145L683.588 192.54Z" fill="#56CDD3"/>
<path d="M957.684 401.728C959.478 401.302 961.347 401.227 963.173 401.51C965.592 401.943 967.939 402.677 970.151 403.692C973.13 405.09 976.246 406.216 979.455 407.052C981.05 407.464 982.718 407.568 984.357 407.358C985.996 407.148 987.573 406.628 988.992 405.83C987.069 405.637 985.216 405.041 983.572 404.085C979.641 401.772 977.106 396.971 973.757 393.96C968.779 389.465 963.057 388.658 955.753 389.007C954.567 394.571 953.218 400.113 951.962 405.677C950.97 410.041 949.977 414.405 948.985 418.769C948.985 419.184 947.473 424.661 947.473 424.661C946.016 423.609 944.334 422.865 942.542 422.479C940.566 422.084 938.509 422.247 936.632 422.949C934.755 423.651 933.142 424.859 931.998 426.421C930.853 427.983 930.228 429.828 930.202 431.723C930.176 433.619 930.75 435.479 931.851 437.068C932.952 438.657 934.531 439.904 936.388 440.651C938.245 441.398 940.296 441.611 942.283 441.264C944.269 440.917 946.101 440.025 947.546 438.701C948.992 437.377 949.986 435.68 950.404 433.825L957.684 401.728Z" fill="#56CDD3"/>
<defs>
<linearGradient id="paint0_linear" x1="157.683" y1="570.461" x2="157.683" y2="822.047" gradientUnits="userSpaceOnUse">
<stop stop-color="#56CDD3"/>
<stop offset="0.503125" stop-color="#0986F1"/>
<stop offset="1" stop-color="#56CDD3" stop-opacity="0"/>
</linearGradient>
<linearGradient id="paint1_linear" x1="157.683" y1="570.461" x2="157.683" y2="822.047" gradientUnits="userSpaceOnUse">
<stop stop-color="#56CDD3"/>
<stop offset="0.503125" stop-color="#0986F1"/>
<stop offset="1" stop-color="#56CDD3" stop-opacity="0"/>
</linearGradient>
<linearGradient id="paint2_linear" x1="152.462" y1="714.283" x2="152.462" y2="889.206" gradientUnits="userSpaceOnUse">
<stop stop-color="#56CDD3"/>
<stop offset="0.503125" stop-color="#0986F1"/>
<stop offset="1" stop-color="#56CDD3" stop-opacity="0"/>
</linearGradient>
<linearGradient id="paint3_linear" x1="242.962" y1="254.247" x2="242.962" y2="907.187" gradientUnits="userSpaceOnUse">
<stop stop-color="#0CDEEF"/>
<stop offset="0.534375" stop-color="#0985EA"/>
<stop offset="1" stop-color="#0888E5"/>
</linearGradient>
<linearGradient id="paint4_linear" x1="403.98" y1="104.978" x2="403.98" y2="906.06" gradientUnits="userSpaceOnUse">
<stop stop-color="#0CDAEF"/>
<stop offset="0.503125" stop-color="#0983EF"/>
<stop offset="1" stop-color="#0693CD"/>
</linearGradient>
<linearGradient id="paint5_linear" x1="394.746" y1="87.7011" x2="394.746" y2="268.081" gradientUnits="userSpaceOnUse">
<stop stop-color="#0987EF"/>
<stop offset="0.523958" stop-color="#0CDEEF"/>
<stop offset="1" stop-color="#049DB8"/>
</linearGradient>
<linearGradient id="paint6_linear" x1="394.618" y1="264.175" x2="394.618" y2="589.665" gradientUnits="userSpaceOnUse">
<stop stop-color="#0CC4F0"/>
<stop offset="0.513542" stop-color="#0A8BF1"/>
<stop offset="1" stop-color="#56CDD3" stop-opacity="0"/>
</linearGradient>
<linearGradient id="paint7_linear" x1="334.363" y1="508.013" x2="334.363" y2="559.181" gradientUnits="userSpaceOnUse">
<stop stop-color="#0CC4F0"/>
<stop offset="0.513542" stop-color="#0A8BF1"/>
<stop offset="1" stop-color="#56CDD3" stop-opacity="0"/>
</linearGradient>
<linearGradient id="paint8_linear" x1="464.77" y1="437.622" x2="464.77" y2="488.79" gradientUnits="userSpaceOnUse">
<stop stop-color="#0CC4F0"/>
<stop offset="0.513542" stop-color="#0A8BF1"/>
<stop offset="1" stop-color="#56CDD3" stop-opacity="0"/>
</linearGradient>
<linearGradient id="paint9_linear" x1="400.502" y1="269.695" x2="400.502" y2="589.655" gradientUnits="userSpaceOnUse">
<stop stop-color="#0CC4F0"/>
<stop offset="0.513542" stop-color="#0A8BF1"/>
<stop offset="1" stop-color="#56CDD3" stop-opacity="0"/>
</linearGradient>
<linearGradient id="paint10_linear" x1="829.963" y1="421.824" x2="829.963" y2="571.878" gradientUnits="userSpaceOnUse">
<stop stop-color="#0CFAEE"/>
<stop offset="0.513542" stop-color="#0981F1"/>
<stop offset="1" stop-color="#03A2AD"/>
</linearGradient>
<linearGradient id="paint11_linear" x1="831.052" y1="287.02" x2="831.052" y2="428.375" gradientUnits="userSpaceOnUse">
<stop stop-color="#0CDAEF"/>
<stop offset="0.497917" stop-color="#0986F1"/>
<stop offset="0.95625" stop-color="#088ADF"/>
</linearGradient>
</defs>
</svg>
