<svg width="1440" height="734" viewBox="0 0 1440 734" fill="none" xmlns="http://www.w3.org/2000/svg">
<g clip-path="url(#clip0)">
<path d="M633.023 694.063L633.026 694.067L637.824 690.74L658.195 676.777L665.497 671.772L664.456 670.421L646.235 646.765L618.617 665.677L618.404 665.735L615.25 661.431C615.011 660.958 614.728 660.508 614.406 660.084C611.985 656.941 607.36 657.321 605.093 658.952C602.827 660.583 602.952 664.453 605.373 667.596C607.76 670.696 612.498 671.938 614.802 670.406L614.805 670.411L619.603 667.084L635.575 655.434L653.105 678.194L654.467 677.213L636.931 654.445L638.906 653.005L656.511 675.862L656.261 676.033L636.838 689.333L636.625 689.392L633.47 685.087C633.232 684.615 632.949 684.164 632.626 683.74C630.206 680.598 625.58 680.977 623.314 682.608C621.048 684.239 621.173 688.109 623.593 691.252C625.981 694.352 630.719 695.595 633.023 694.063Z" fill="#3F3D56"/>
<path d="M517.693 747.598C529.161 741.604 540.166 750.838 540.166 750.838C548.233 755.386 551.095 748.413 551.095 748.413L552.001 745.793C553.188 745.039 554.154 744.003 554.811 742.782L556.406 738.928C549.448 745.694 542.962 740.874 542.962 740.874L534.191 737.113L556.064 721.582L560.404 727.504C560.735 728.16 561.128 728.787 561.576 729.375C564.939 733.74 571.363 733.213 574.51 730.947C577.658 728.682 577.484 723.307 574.122 718.942C570.806 714.636 564.225 712.911 561.026 715.038L561.022 715.033L554.357 719.653L554.481 719.793L517.693 747.598ZM538.547 745.599L530.404 741.601C535.327 741.321 540.216 742.746 544.203 745.623C545.732 746.47 547.482 746.857 549.226 746.732C547.525 747.516 545.627 747.825 543.743 747.625C541.858 747.425 540.06 746.724 538.547 745.599L538.547 745.599Z" fill="#AA44AA"/>
<path d="M732.234 657.939L732.238 657.944L738.902 653.324L766.004 633.556L767.93 643.841C768.902 646.213 768.896 648.845 767.915 651.186C766.933 653.528 765.052 655.398 762.663 656.405L767.121 656.268C767.121 656.268 774.853 655.618 772.658 646.843C772.658 646.843 766.662 634.004 775.891 625.103L737.532 651.37L737.237 651.451L732.856 645.473C732.524 644.817 732.132 644.19 731.683 643.602C728.321 639.237 721.897 639.764 718.749 642.03C715.601 644.295 715.775 649.67 719.137 654.035C722.453 658.34 729.034 660.066 732.234 657.939Z" fill="#A4AAC0"/>
<path d="M706.25 774.55L701.869 768.572C701.537 767.915 701.145 767.289 700.696 766.701C697.334 762.336 690.91 762.863 687.762 765.128C684.615 767.394 684.788 772.769 688.15 777.134C691.466 781.439 698.047 783.165 701.247 781.038L701.251 781.043L707.916 776.422L730.098 760.243L754.446 791.853L756.338 790.491L731.981 758.869L734.724 756.868L759.176 788.614L758.829 788.852L731.852 807.325L731.557 807.406L727.176 801.428C726.844 800.772 726.452 800.145 726.003 799.557C722.641 795.192 716.217 795.719 713.069 797.984C709.921 800.25 710.095 805.625 713.457 809.99C716.773 814.295 723.354 816.021 726.554 813.894L726.558 813.899L733.222 809.279L760.625 790.496L760.626 790.495L761.515 789.886L771.657 782.934L744.904 748.201L706.545 774.469L706.25 774.55Z" fill="#4693B8"/>
<path d="M958.494 770.256L958.5 770.266L969.973 762.312L1016.63 728.283L1019.94 745.989C1019.94 745.989 1026.06 760.127 1010.88 767.617L1018.55 767.381C1018.55 767.381 1031.86 766.261 1028.08 751.156C1028.08 751.156 1017.76 729.054 1033.65 713.731L967.614 758.949L967.105 759.089L959.564 748.797C958.993 747.668 958.317 746.589 957.545 745.577C951.758 738.063 940.699 738.97 935.28 742.87C929.862 746.769 930.16 756.022 935.948 763.537C941.657 770.948 952.986 773.919 958.494 770.256Z" fill="#538CEA"/>
<path d="M784.862 711.044C812.281 696.713 838.594 718.791 838.594 718.791C857.882 729.666 864.724 712.994 864.724 712.994L866.89 706.73C869.728 704.927 872.039 702.45 873.609 699.529L877.423 690.315C860.786 706.493 845.277 694.969 845.277 694.969L824.309 685.976L876.605 648.842L886.981 663.002C887.774 664.571 888.712 666.068 889.784 667.475C897.823 677.911 913.182 676.651 920.708 671.235C928.234 665.818 927.819 652.967 919.781 642.531C911.852 632.237 896.117 628.11 888.467 633.197L888.458 633.184L872.524 644.232L872.82 644.564L784.862 711.044ZM834.723 706.265L815.186 696.674C834.074 695.109 848.246 706.323 848.246 706.323C851.903 708.349 856.086 709.273 860.256 708.975C846.728 715.709 834.723 706.265 834.723 706.265Z" fill="#7A6AC9"/>
<path d="M784.862 711.044C812.281 696.713 838.594 718.791 838.594 718.791C857.882 729.666 864.724 712.994 864.724 712.994L866.89 706.73C869.727 704.927 872.039 702.45 873.609 699.529L877.423 690.315C860.786 706.493 845.277 694.969 845.277 694.969L824.309 685.976L876.605 648.842L886.981 663.002C887.774 664.571 888.712 666.068 889.784 667.475C897.823 677.911 913.182 676.651 920.708 671.235C928.234 665.818 927.819 652.967 919.781 642.531C911.852 632.237 896.117 628.11 888.467 633.197L888.458 633.184L872.524 644.232L872.82 644.564L784.862 711.044ZM834.723 706.265L815.185 696.674C834.074 695.109 848.246 706.323 848.246 706.323C851.902 708.349 856.086 709.273 860.256 708.975C846.728 715.709 834.723 706.265 834.723 706.265Z" fill="#7A6AC9"/>
</g>
<g clip-path="url(#clip1)">
<path d="M1025.6 542.074L1025.6 542.078L1030.4 538.751L1050.77 524.789L1058.08 519.784L1057.04 518.433L1038.81 494.776L1011.2 513.689L1010.98 513.747L1007.83 509.443C1007.59 508.97 1007.31 508.519 1006.98 508.096C1004.56 504.953 999.939 505.333 997.673 506.964C995.406 508.595 995.531 512.465 997.952 515.607C1000.34 518.707 1005.08 519.95 1007.38 518.418L1007.38 518.422L1012.18 515.095L1028.15 503.446L1045.68 526.205L1047.05 525.225L1029.51 502.457L1031.49 501.017L1049.09 523.873L1048.84 524.044L1029.42 537.345L1029.2 537.403L1026.05 533.099C1025.81 532.627 1025.53 532.176 1025.21 531.752C1022.79 528.609 1018.16 528.989 1015.89 530.62C1013.63 532.251 1013.75 536.121 1016.17 539.264C1018.56 542.364 1023.3 543.606 1025.6 542.074Z" fill="#3F3D56"/>
<path d="M910.272 595.609C921.74 589.615 932.746 598.849 932.746 598.849C940.813 603.398 943.674 596.425 943.674 596.425L944.58 593.805C945.767 593.051 946.734 592.015 947.39 590.793L948.986 586.939C942.027 593.706 935.541 588.886 935.541 588.886L926.771 585.124L948.644 569.593L952.983 575.516C953.315 576.172 953.707 576.798 954.156 577.386C957.518 581.751 963.942 581.224 967.09 578.959C970.238 576.694 970.064 571.318 966.702 566.953C963.386 562.648 956.804 560.922 953.605 563.05L953.601 563.044L946.937 567.665L947.06 567.804L910.272 595.609ZM931.126 593.611L922.983 589.613C927.906 589.332 932.796 590.757 936.782 593.634C938.312 594.482 940.062 594.868 941.806 594.744C940.104 595.527 938.207 595.836 936.322 595.636C934.438 595.436 932.639 594.735 931.126 593.611L931.126 593.611Z" fill="#AA44AA"/>
<path d="M1124.81 505.951L1124.82 505.956L1131.48 501.335L1158.58 481.568L1160.51 491.853C1161.48 494.225 1161.48 496.856 1160.49 499.198C1159.51 501.54 1157.63 503.41 1155.24 504.417L1159.7 504.28C1159.7 504.28 1167.43 503.629 1165.24 494.855C1165.24 494.855 1159.24 482.016 1168.47 473.114L1130.11 499.382L1129.82 499.463L1125.43 493.485C1125.1 492.828 1124.71 492.202 1124.26 491.614C1120.9 487.249 1114.48 487.776 1111.33 490.041C1108.18 492.307 1108.35 497.682 1111.72 502.047C1115.03 506.352 1121.61 508.078 1124.81 505.951Z" fill="#A4AAC0"/>
<path d="M1098.83 622.562L1094.45 616.583C1094.12 615.927 1093.72 615.301 1093.28 614.713C1089.91 610.348 1083.49 610.875 1080.34 613.14C1077.19 615.405 1077.37 620.781 1080.73 625.146C1084.05 629.451 1090.63 631.177 1093.83 629.049L1093.83 629.055L1100.49 624.434L1122.68 608.254L1147.02 639.865L1148.92 638.503L1124.56 606.881L1127.3 604.88L1151.76 636.626L1151.41 636.863L1124.43 655.337L1124.14 655.418L1119.76 649.44C1119.42 648.783 1119.03 648.157 1118.58 647.569C1115.22 643.204 1108.8 643.731 1105.65 645.996C1102.5 648.262 1102.67 653.637 1106.04 658.002C1109.35 662.307 1115.93 664.033 1119.13 661.905L1119.14 661.911L1125.8 657.29L1153.2 638.507L1153.21 638.507L1154.09 637.897L1164.24 630.946L1137.48 596.213L1099.12 622.481L1098.83 622.562Z" fill="#4693B8"/>
<path d="M1351.07 618.268L1351.08 618.278L1362.55 610.324L1409.21 576.295L1412.52 594.001C1412.52 594.001 1418.64 608.139 1403.46 615.629L1411.13 615.393C1411.13 615.393 1424.44 614.273 1420.66 599.168C1420.66 599.168 1410.34 577.066 1426.23 561.743L1360.19 606.961L1359.68 607.101L1352.14 596.809C1351.57 595.679 1350.9 594.601 1350.12 593.589C1344.34 586.075 1333.28 586.982 1327.86 590.882C1322.44 594.781 1322.74 604.034 1328.53 611.549C1334.24 618.96 1345.56 621.931 1351.07 618.268Z" fill="#538CEA"/>
<path d="M1177.44 559.055C1204.86 544.724 1231.17 566.803 1231.17 566.803C1250.46 577.678 1257.3 561.005 1257.3 561.005L1259.47 554.742C1262.31 552.938 1264.62 550.461 1266.19 547.541L1270 538.327C1253.37 554.505 1237.86 542.98 1237.86 542.98L1216.89 533.987L1269.18 496.854L1279.56 511.014C1280.35 512.583 1281.29 514.08 1282.36 515.487C1290.4 525.923 1305.76 524.663 1313.29 519.246C1320.81 513.83 1320.4 500.979 1312.36 490.542C1304.43 480.248 1288.7 476.122 1281.05 481.209L1281.04 481.195L1265.1 492.243L1265.4 492.576L1177.44 559.055ZM1227.3 554.277L1207.76 544.686C1226.65 543.121 1240.83 554.334 1240.83 554.334C1244.48 556.36 1248.67 557.285 1252.84 556.987C1239.31 563.721 1227.3 554.277 1227.3 554.277Z" fill="#7A6AC9"/>
<path d="M1177.44 559.056C1204.86 544.724 1231.17 566.803 1231.17 566.803C1250.46 577.678 1257.3 561.005 1257.3 561.005L1259.47 554.742C1262.31 552.938 1264.62 550.461 1266.19 547.541L1270 538.327C1253.37 554.505 1237.86 542.98 1237.86 542.98L1216.89 533.987L1269.18 496.854L1279.56 511.014C1280.35 512.583 1281.29 514.08 1282.36 515.487C1290.4 525.923 1305.76 524.663 1313.29 519.246C1320.81 513.83 1320.4 500.979 1312.36 490.542C1304.43 480.248 1288.7 476.122 1281.05 481.209L1281.04 481.195L1265.1 492.243L1265.4 492.576L1177.44 559.056ZM1227.3 554.277L1207.76 544.686C1226.65 543.121 1240.83 554.334 1240.83 554.334C1244.48 556.36 1248.67 557.285 1252.84 556.987C1239.31 563.721 1227.3 554.277 1227.3 554.277Z" fill="#7A6AC9"/>
</g>
<g clip-path="url(#clip2)">
<path d="M1025.6 542.074L1025.6 542.078L1030.4 538.751L1050.77 524.789L1058.08 519.784L1057.04 518.433L1038.81 494.776L1011.2 513.689L1010.98 513.747L1007.83 509.443C1007.59 508.97 1007.31 508.519 1006.98 508.096C1004.56 504.953 999.939 505.333 997.673 506.964C995.406 508.595 995.531 512.465 997.952 515.607C1000.34 518.707 1005.08 519.95 1007.38 518.418L1007.38 518.422L1012.18 515.095L1028.15 503.446L1045.68 526.205L1047.05 525.225L1029.51 502.457L1031.49 501.017L1049.09 523.873L1048.84 524.044L1029.42 537.345L1029.2 537.403L1026.05 533.099C1025.81 532.627 1025.53 532.176 1025.21 531.752C1022.79 528.609 1018.16 528.989 1015.89 530.62C1013.63 532.251 1013.75 536.121 1016.17 539.264C1018.56 542.364 1023.3 543.606 1025.6 542.074Z" fill="#3F3D56"/>
<path d="M910.272 595.609C921.74 589.615 932.746 598.849 932.746 598.849C940.813 603.398 943.674 596.425 943.674 596.425L944.58 593.805C945.767 593.051 946.734 592.015 947.39 590.793L948.986 586.939C942.027 593.706 935.541 588.886 935.541 588.886L926.771 585.124L948.644 569.593L952.983 575.516C953.315 576.172 953.707 576.798 954.156 577.386C957.518 581.751 963.942 581.224 967.09 578.959C970.238 576.694 970.064 571.318 966.702 566.953C963.386 562.648 956.804 560.922 953.605 563.05L953.601 563.044L946.937 567.665L947.06 567.804L910.272 595.609ZM931.126 593.611L922.983 589.613C927.906 589.332 932.796 590.757 936.782 593.634C938.312 594.482 940.062 594.868 941.806 594.744C940.104 595.527 938.207 595.836 936.322 595.636C934.438 595.436 932.639 594.735 931.126 593.611L931.126 593.611Z" fill="#AA44AA"/>
<path d="M1124.81 505.951L1124.82 505.956L1131.48 501.335L1158.58 481.568L1160.51 491.853C1161.48 494.225 1161.48 496.856 1160.49 499.198C1159.51 501.54 1157.63 503.41 1155.24 504.417L1159.7 504.28C1159.7 504.28 1167.43 503.629 1165.24 494.855C1165.24 494.855 1159.24 482.016 1168.47 473.114L1130.11 499.382L1129.82 499.463L1125.43 493.485C1125.1 492.828 1124.71 492.202 1124.26 491.614C1120.9 487.249 1114.48 487.776 1111.33 490.041C1108.18 492.307 1108.35 497.682 1111.72 502.047C1115.03 506.352 1121.61 508.078 1124.81 505.951Z" fill="#A4AAC0"/>
<path d="M1098.83 622.562L1094.45 616.583C1094.12 615.927 1093.72 615.301 1093.28 614.713C1089.91 610.348 1083.49 610.875 1080.34 613.14C1077.19 615.405 1077.37 620.781 1080.73 625.146C1084.05 629.451 1090.63 631.177 1093.83 629.049L1093.83 629.055L1100.49 624.434L1122.68 608.254L1147.02 639.865L1148.92 638.503L1124.56 606.881L1127.3 604.88L1151.76 636.626L1151.41 636.863L1124.43 655.337L1124.14 655.418L1119.76 649.44C1119.42 648.783 1119.03 648.157 1118.58 647.569C1115.22 643.204 1108.8 643.731 1105.65 645.996C1102.5 648.262 1102.67 653.637 1106.04 658.002C1109.35 662.307 1115.93 664.033 1119.13 661.905L1119.14 661.911L1125.8 657.29L1153.2 638.507L1153.21 638.507L1154.09 637.897L1164.24 630.946L1137.48 596.213L1099.12 622.481L1098.83 622.562Z" fill="#4693B8"/>
<path d="M1351.07 618.268L1351.08 618.278L1362.55 610.324L1409.21 576.295L1412.52 594.001C1412.52 594.001 1418.64 608.139 1403.46 615.629L1411.13 615.393C1411.13 615.393 1424.44 614.273 1420.66 599.168C1420.66 599.168 1410.34 577.066 1426.23 561.743L1360.19 606.961L1359.68 607.101L1352.14 596.809C1351.57 595.679 1350.9 594.601 1350.12 593.589C1344.34 586.075 1333.28 586.982 1327.86 590.882C1322.44 594.781 1322.74 604.034 1328.53 611.549C1334.24 618.96 1345.56 621.931 1351.07 618.268Z" fill="#538CEA"/>
<path d="M1177.44 559.055C1204.86 544.724 1231.17 566.803 1231.17 566.803C1250.46 577.678 1257.3 561.005 1257.3 561.005L1259.47 554.742C1262.31 552.938 1264.62 550.461 1266.19 547.541L1270 538.327C1253.37 554.505 1237.86 542.98 1237.86 542.98L1216.89 533.987L1269.18 496.854L1279.56 511.014C1280.35 512.583 1281.29 514.08 1282.36 515.487C1290.4 525.923 1305.76 524.663 1313.29 519.246C1320.81 513.83 1320.4 500.979 1312.36 490.542C1304.43 480.248 1288.7 476.122 1281.05 481.209L1281.04 481.195L1265.1 492.243L1265.4 492.576L1177.44 559.055ZM1227.3 554.277L1207.76 544.686C1226.65 543.121 1240.83 554.334 1240.83 554.334C1244.48 556.36 1248.67 557.285 1252.84 556.987C1239.31 563.721 1227.3 554.277 1227.3 554.277Z" fill="#7A6AC9"/>
<path d="M1177.44 559.056C1204.86 544.724 1231.17 566.803 1231.17 566.803C1250.46 577.678 1257.3 561.005 1257.3 561.005L1259.47 554.742C1262.31 552.938 1264.62 550.461 1266.19 547.541L1270 538.327C1253.37 554.505 1237.86 542.98 1237.86 542.98L1216.89 533.987L1269.18 496.854L1279.56 511.014C1280.35 512.583 1281.29 514.08 1282.36 515.487C1290.4 525.923 1305.76 524.663 1313.29 519.246C1320.81 513.83 1320.4 500.979 1312.36 490.542C1304.43 480.248 1288.7 476.122 1281.05 481.209L1281.04 481.195L1265.1 492.243L1265.4 492.576L1177.44 559.056ZM1227.3 554.277L1207.76 544.686C1226.65 543.121 1240.83 554.334 1240.83 554.334C1244.48 556.36 1248.67 557.285 1252.84 556.987C1239.31 563.721 1227.3 554.277 1227.3 554.277Z" fill="#7A6AC9"/>
</g>
<defs>
<clipPath id="clip0">
<rect width="1298.43" height="1159.64" fill="white" transform="matrix(-0.534573 0.845122 -0.855932 -0.517088 1213.42 751.625)"/>
</clipPath>
<clipPath id="clip1">
<rect width="1298.43" height="1159.64" fill="white" transform="matrix(-0.534573 0.845122 -0.855932 -0.517088 1606 599.637)"/>
</clipPath>
<clipPath id="clip2">
<rect width="1298.43" height="1159.64" fill="white" transform="matrix(-0.534573 0.845122 -0.855932 -0.517088 1606 599.637)"/>
</clipPath>
</defs>
</svg>
